<?xml version="1.0" standalone="no"?>
<!DOCTYPE svg PUBLIC "-//W3C//DTD SVG 1.1//EN" "http://www.w3.org/Graphics/SVG/1.1/DTD/svg11.dtd" >
<svg xmlns="http://www.w3.org/2000/svg">
<metadata></metadata>
<defs>
<font id="fs_joeylight_italic" horiz-adv-x="1060" >
<font-face units-per-em="2048" ascent="1536" descent="-512" />
<missing-glyph horiz-adv-x="458" />
<glyph unicode="&#xfb01;" horiz-adv-x="956" d="M-47 -344q47 118 77.5 234t63.5 296l131 736h-123q-15 0 -12 16l6 33q5 15 21 18l127 19l12 57q40 188 133.5 264t261.5 76q112 0 209 -29q19 -5 14 -22l-12 -43q-5 -16 -24 -11q-91 25 -187 25q-126 0 -199 -55.5t-102 -196.5l-14 -69h522q15 0 12 -15l-188 -975 q-3 -14 -18 -14h-60q-15 0 -12 14l174 908h-449l-129 -701q-40 -220 -70 -336t-77 -231q-6 -16 -25 -16h-51q-19 0 -12 18z" />
<glyph unicode="&#xfb02;" horiz-adv-x="999" d="M-47 -344q47 118 77.5 234t63.5 296l131 736h-123q-15 0 -12 16l6 33q5 15 21 18l127 19l12 57q28 133 69 204.5t109.5 103.5t183.5 32q120 0 205 -29l62 10q15 0 12 -14l-221 -1147q-10 -49 -10 -86q0 -32 16 -46.5t57 -14.5h95q15 0 12 -15l-8 -49q-3 -14 -25 -14h-86 q-83 0 -117.5 28t-34.5 93q0 38 13 108l207 1069q-30 11 -83 19t-94 8q-62 0 -102 -9.5t-73.5 -37t-55 -77t-37.5 -128.5l-14 -69h227q15 0 12 -15l-10 -55q-3 -12 -16 -12h-232l-129 -701q-40 -220 -70 -336t-77 -231q-6 -16 -25 -16h-51q-19 0 -12 18z" />
<glyph horiz-adv-x="2048" />
<glyph horiz-adv-x="2048" />
<glyph unicode="&#xd;" horiz-adv-x="2048" />
<glyph unicode=" "  horiz-adv-x="458" />
<glyph unicode="&#x09;" horiz-adv-x="458" />
<glyph unicode="&#xa0;" horiz-adv-x="458" />
<glyph unicode="!" horiz-adv-x="448" d="M27 27q0 15 10 71q14 74 80 74h18q55 0 55 -45q0 -19 -12 -74q-9 -40 -27 -55.5t-55 -15.5h-16q-53 0 -53 45zM111 289l188 1011q3 17 18 17h60q11 0 15 -3.5t3 -13.5l-209 -1013q-3 -15 -18 -15h-41q-19 0 -16 17z" />
<glyph unicode="&#x22;" horiz-adv-x="565" d="M141 950l70 430q3 18 10 23.5t25 5.5h47q18 0 23.5 -5.5t2.5 -23.5l-98 -430q-5 -24 -28 -24h-35q-22 0 -17 24zM444 950l70 430q3 18 10 23.5t25 5.5h47q18 0 24 -5.5t3 -23.5l-99 -430q-5 -24 -28 -24h-35q-22 0 -17 24z" />
<glyph unicode="#" horiz-adv-x="1398" d="M35 426l16 41q8 18 31 18h272l148 361h-266q-27 0 -19 22l16 41q8 19 31 19h273l153 377q7 18 27 18h53q21 0 12 -20l-153 -375h340l153 377q7 18 27 18h53q21 0 12 -20l-153 -375h270q28 0 19 -23l-17 -41q-8 -18 -30 -18h-277l-147 -361h270q26 0 18 -22l-16 -41 q-8 -19 -31 -19h-274l-158 -383q-8 -20 -24 -20h-56q-18 0 -12 20l158 383h-340l-158 -383q-8 -20 -25 -20h-55q-18 0 -12 20l158 383h-269q-27 0 -18 23zM446 485h340l148 361h-340z" />
<glyph unicode="$" d="M37 102l14 39q9 22 29 13q154 -59 299 -62l108 553l-86 25q-94 27 -145 90.5t-51 148.5q0 83 18 156q63 253 395 256l37 188q5 21 29 21h27q14 0 20.5 -5t3.5 -16l-37 -188q55 -3 127 -16t115 -27q16 -6 19 -12.5t-1 -18.5l-12 -37q-4 -13 -11 -16t-22 2q-115 34 -231 37 l-100 -516q71 -18 108 -31q170 -57 170 -231q0 -60 -16 -133q-35 -162 -127.5 -234.5t-272.5 -81.5l-41 -203q-5 -20 -28 -20h-27q-15 0 -21 4.5t-3 15.5l41 203q-79 3 -168 22t-148 46q-19 8 -12 28zM301 924q0 -150 205 -191l96 502q-240 3 -285 -182q-16 -69 -16 -129z M459 88q129 10 193 67.5t87 151.5q21 86 21 125q0 85 -46.5 131t-150.5 66z" />
<glyph unicode="%" horiz-adv-x="1550" d="M115 799q0 57 26 209q22 116 49.5 178.5t65.5 97.5q68 59 180 59q195 0 195 -182q0 -88 -25 -209q-25 -118 -53 -179.5t-66 -96.5q-69 -60 -180 -60q-192 0 -192 183zM195 809q0 -67 30.5 -95t91.5 -28q86 0 133.5 60t77.5 217q23 121 23 188q0 65 -30 94t-97 29 q-83 0 -130.5 -61.5t-74.5 -215.5q-24 -151 -24 -188zM225 -2l989 1331q9 14 31 14h55q9 0 12 -4.5t-3 -11.5l-990 -1331q-12 -14 -30 -14h-56q-21 0 -8 16zM903 164q0 52 27 209q22 116 49.5 179t64.5 97q69 60 181 60q194 0 194 -183q0 -92 -24 -209q-25 -118 -53 -179.5 t-66 -96.5q-68 -59 -180 -59q-193 0 -193 182zM983 174q0 -66 31 -94.5t92 -28.5q86 0 133.5 60t77.5 217q22 115 22 188q0 65 -30 94t-97 29q-83 0 -130 -61.5t-74 -215.5q-25 -157 -25 -188z" />
<glyph unicode="&#x26;" horiz-adv-x="1232" d="M76 279q0 335 327 471q-88 128 -88 247q0 158 96 252t257 94q129 0 199.5 -66t70.5 -187q0 -153 -79.5 -258t-252.5 -193l264 -324q67 157 103 330q3 12 8 15.5t16 3.5h41q25 0 19 -21q-60 -260 -129 -395l155 -187q12 -15 -2 -26l-45 -35q-14 -11 -26 4l-136 164 q-75 -96 -177.5 -141t-247.5 -45h-33q-172 0 -256 72.5t-84 224.5zM164 285q0 -119 63 -173.5t193 -54.5h35q252 0 366 176l-377 459q-280 -127 -280 -407zM403 1008q0 -68 32.5 -132t109.5 -161l16 -21q154 77 219.5 165t65.5 220q0 91 -47.5 139t-134.5 48 q-120 0 -190.5 -69.5t-70.5 -188.5z" />
<glyph unicode="'" horiz-adv-x="262" d="M141 950l70 430q3 18 10 23.5t25 5.5h47q18 0 23.5 -5.5t2.5 -23.5l-98 -430q-5 -24 -28 -24h-35q-22 0 -17 24z" />
<glyph unicode="(" horiz-adv-x="567" d="M94 344q0 287 126.5 566.5t350.5 514.5q16 16 29 5l27 -23q13 -13 2 -27q-199 -215 -317.5 -482t-118.5 -550q0 -149 26.5 -278.5t89.5 -280.5q9 -18 -10 -27l-27 -12q-21 -9 -28 6q-74 155 -112 296.5t-38 291.5z" />
<glyph unicode=")" horiz-adv-x="567" d="M-102 -199q199 215 317.5 482.5t118.5 550.5q0 148 -26.5 277.5t-90.5 281.5q-8 17 10 26l27 13q21 9 29 -7q74 -154 111.5 -295t37.5 -292q0 -287 -126.5 -567t-350.5 -515q-15 -15 -29 -4l-26 23q-12 12 -2 26z" />
<glyph unicode="*" horiz-adv-x="692" d="M168 1245l37 68q13 21 35 8l178 -107l14 238q0 18 7.5 24.5t23.5 6.5h65q16 0 20 -6t-1 -25l-76 -240l217 105q30 15 33 -12l8 -60q3 -26 -27 -31l-229 -59l137 -182q19 -21 -6 -37l-63 -37q-26 -15 -37 10l-78 211l-164 -211q-18 -27 -41 -10l-49 35q-20 14 6 37 l213 192l-209 51q-29 7 -14 31z" />
<glyph unicode="+" horiz-adv-x="1048" d="M78 506l12 59q3 15 16 15h357l69 356q3 14 17 14h57q18 0 15 -14l-70 -356h356q16 0 13 -15l-13 -59q-3 -14 -16 -14h-356l-70 -359q-3 -14 -16 -14h-58q-17 0 -14 14l69 359h-356q-15 0 -12 14z" />
<glyph unicode="," horiz-adv-x="389" d="M-51 -219q69 81 102 156q12 26 -8 36l-18 9q-31 12 -31 38q0 24 14 91q15 67 78 67h27q67 0 67 -53q0 -20 -12 -74q-39 -162 -166 -309q-11 -14 -25 -6l-28 20q-14 11 0 25z" />
<glyph unicode="-" horiz-adv-x="563" d="M35 512l12 53q3 15 16 15h392q15 0 12 -15l-12 -53q-3 -14 -17 -14h-391q-15 0 -12 14z" />
<glyph unicode="." horiz-adv-x="389" d="M-12 23q0 13 12 81t82 68h22q62 0 62 -41q0 -13 -14 -82q-8 -35 -26 -51t-58 -16h-21q-59 0 -59 41z" />
<glyph unicode="/" horiz-adv-x="651" d="M-66 -33l705 1428q8 18 25 18h57q12 0 15 -4t-3 -16l-704 -1428q-8 -18 -27 -18h-55q-22 0 -13 20z" />
<glyph unicode="0" d="M86 338q0 138 43 377q32 178 80.5 301t116 194t146.5 102t181 31q155 0 234.5 -85.5t79.5 -268.5q0 -138 -43 -377q-26 -143 -63 -250.5t-83 -179.5t-106 -117t-126 -64t-147 -19q-154 0 -233.5 86t-79.5 270zM184 348q0 -144 51.5 -215.5t176.5 -71.5q80 0 141 27.5 t117 93.5q62 74 110 238.5t68 312.5t20 246q0 144 -51 214.5t-176 70.5q-81 0 -142 -27t-116 -92q-62 -74 -110 -238.5t-68.5 -312.5t-20.5 -246z" />
<glyph unicode="1" d="M55 20l6 43q3 21 25 21h311l221 1147h-10l-278 -127q-21 -11 -27 6l-16 43q-8 19 8 27l289 131q32 14 61 14h62q23 0 18 -22l-233 -1219h311q21 0 18 -21l-6 -43q-1 -12 -6.5 -16t-17.5 -4h-717q-22 0 -19 20z" />
<glyph unicode="2" d="M49 37l21 127q23 148 66 238t108.5 141.5t179.5 95.5l143 55q82 32 133 60t94.5 71t63 103t19.5 143q0 98 -55 143.5t-171 45.5q-155 0 -299 -52q-22 -7 -28 15l-9 39q-5 18 17 26q162 55 327 55q316 0 316 -260q0 -99 -19 -168.5t-66.5 -124.5t-116.5 -95.5t-179 -84.5 l-137 -53q-138 -52 -202 -133.5t-91 -249.5l-14 -90h587q22 0 19 -21l-6 -43q-2 -20 -25 -20h-645q-19 0 -26.5 8t-4.5 29z" />
<glyph unicode="3" d="M59 46.5q-3 5.5 0 16.5l15 41q5 19 24 13q141 -51 273 -51q168 0 264 87.5t96 276.5q0 122 -78.5 178t-244.5 56h-56q-19 0 -16 16l10 53q2 15 29 15h57q187 0 285 85t98 240q0 100 -54.5 143.5t-178.5 43.5q-121 0 -256 -43q-19 -4 -24 -1t-7 15l-6 39q-3 20 14 26 q139 47 293 47q163 0 239 -63t76 -190q0 -91 -24.5 -162t-67.5 -115t-92 -70t-106 -38v-7q100 -13 154 -84t54 -180q0 -223 -119.5 -337.5t-336.5 -114.5q-152 0 -299 55q-12 4 -15 9.5z" />
<glyph unicode="4" d="M43 375l2 24q1 18 10.5 33.5t38.5 52.5l631 797q20 25 35.5 34t44.5 9h57q31 0 42 -13t5 -46l-157 -830h149q12 0 16 -3t3 -13l-9 -51q-2 -17 -22 -17h-154l-61 -334q-3 -18 -23 -18h-57q-11 0 -15.5 4.5t-3.5 13.5l66 334h-573q-17 0 -22 4.5t-3 18.5zM160 436h497 l156 807h-12z" />
<glyph unicode="5" d="M37 82l12 33q10 23 35 12q155 -61 278 -61q86 0 159.5 28.5t130.5 83.5t89.5 144t32.5 202q0 115 -54 166t-157 51q-138 0 -278 -65q-22 -10 -26.5 -11t-20.5 1l-27 12q-14 6 -8 27l153 587q6 33 41 33h523q30 0 24 -25l-8 -43q-5 -20 -33 -20h-446q-25 0 -31 -25 l-121 -450q125 61 273 61q294 0 294 -288q0 -116 -30.5 -214t-92 -175t-163 -120.5t-234.5 -43.5q-72 0 -154.5 19.5t-150.5 51.5q-18 9 -10 29z" />
<glyph unicode="6" d="M111 309q0 72 18.5 205.5t44.5 257.5q27 130 71 231t110.5 179t161.5 119.5t216 41.5q133 0 225 -36q23 -8 15 -31l-10 -29q-5 -12 -11.5 -15t-23.5 1q-102 29 -195 29t-167.5 -31t-122.5 -80t-85.5 -125t-59 -149t-40.5 -170q67 53 159.5 84.5t186.5 31.5 q291 0 291 -276q0 -259 -123 -412t-340 -153q-161 0 -241 85t-80 242zM207 313q0 -125 55 -186t178 -61q92 0 163.5 39t113 105t62 145.5t20.5 168.5q0 112 -49 163.5t-162 51.5q-91 0 -186 -38t-162 -99q-33 -173 -33 -289z" />
<glyph unicode="7" d="M91 7.5q-3 7.5 5 19.5l824 1214h-652q-23 0 -18 21l10 45q3 18 27 18h717q21 0 28 -6t4 -23l-4 -28q-3 -19 -13 -37.5t-42 -65.5l-770 -1142q-14 -23 -45 -23h-56q-12 0 -15 7.5z" />
<glyph unicode="8" d="M53 301q0 139 78 250.5t221 169.5q-63 50 -91 107.5t-28 138.5q0 169 113.5 272.5t296.5 103.5q157 0 236 -76t79 -198q0 -129 -72.5 -235t-199.5 -168q178 -83 178 -256q0 -198 -118 -313t-326 -115q-173 0 -270 83.5t-97 235.5zM154 309q0 -121 73.5 -182t204.5 -61 q154 0 243 90t89 235q0 80 -42.5 131t-162.5 105l-123 55q-282 -120 -282 -373zM334 979q0 -81 35 -132.5t127 -92.5l110 -49q114 54 185 147.5t71 204.5q0 203 -227 203q-134 0 -217.5 -76t-83.5 -205z" />
<glyph unicode="9" d="M98 49l11 29q5 13 11 15.5t23 -1.5q102 -29 195 -29t167.5 31t122.5 80t85.5 125t59 149t40.5 170q-67 -53 -159.5 -84.5t-186.5 -31.5q-291 0 -291 276q0 259 123 412t340 153q161 0 241.5 -85t80.5 -242t-64 -463q-27 -130 -71 -231t-110.5 -179t-161.5 -119.5 t-216 -41.5q-133 0 -225 36q-23 8 -15 31zM272 801q0 -112 49 -163.5t162 -51.5q91 0 186 38t162 99q33 173 33 289q0 125 -55 186.5t-178 61.5q-74 0 -135 -26t-102 -69.5t-69 -103t-40.5 -124.5t-12.5 -136z" />
<glyph unicode=":" horiz-adv-x="378" d="M-8 23q0 13 12 81t82 68h23q61 0 61 -41q0 -13 -14 -82q-8 -35 -26 -51t-58 -16h-21q-59 0 -59 41zM137 803q0 8 13 82q12 67 81 67h23q61 0 61 -41q0 -13 -14 -82q-8 -35 -26 -51t-58 -16h-20q-60 0 -60 41z" />
<glyph unicode=";" horiz-adv-x="378" d="M-74 -219q71 83 103 156q11 26 -9 36l-18 9q-31 12 -31 38q0 20 15 91q15 67 77 67h27q68 0 68 -53q0 -15 -13 -74q-39 -164 -165 -309q-11 -14 -25 -6l-29 20q-14 11 0 25zM133 803q0 14 12 82q12 67 82 67h23q61 0 61 -41q0 -13 -14 -82q-8 -35 -26 -51t-58 -16h-20 q-60 0 -60 41z" />
<glyph unicode="&#x3c;" horiz-adv-x="1048" d="M123 514q0 6 8 39q3 10 6.5 13.5t14.5 8.5l675 340q23 10 31 -6l21 -41q8 -16 -13 -26l-612 -316l475 -299q19 -12 6 -28l-28 -39q-9 -13 -27 -2l-541 336q-16 10 -16 20z" />
<glyph unicode="=" horiz-adv-x="1048" d="M45 324l12 59q3 14 17 14h800q16 0 13 -14l-13 -59q-3 -15 -16 -15h-801q-15 0 -12 15zM115 688l12 60q3 14 16 14h801q15 0 12 -14l-12 -60q-3 -14 -16 -14h-801q-15 0 -12 14z" />
<glyph unicode="&#x3e;" horiz-adv-x="1048" d="M147 205q-8 17 13 26l612 316l-475 299q-19 12 -6 28l28 39q9 13 27 2l541 -335q16 -10 16 -21q0 -6 -8 -39q-3 -10 -6.5 -13.5t-14.5 -8.5l-675 -340q-23 -10 -31 6z" />
<glyph unicode="?" horiz-adv-x="903" d="M123 27q0 15 10 71q14 74 80 74h18q56 0 56 -45q0 -14 -13 -74q-9 -40 -26.5 -55.5t-54.5 -15.5h-17q-53 0 -53 45zM193 293q28 180 86 275.5t182 162.5l82 45q120 64 172.5 130.5t52.5 168.5q0 95 -59.5 140t-188.5 45q-123 0 -291 -52q-20 -5 -26 13l-10 39 q-5 20 16 28q157 55 313 55q342 0 342 -256q0 -136 -65 -220.5t-207 -157.5l-80 -43q-114 -61 -165 -142t-73 -231q-2 -12 -6.5 -16.5t-19.5 -4.5h-35q-23 0 -20 21z" />
<glyph unicode="@" horiz-adv-x="1611" d="M106 567q0 234 97 419t277.5 291.5t414.5 106.5q134 0 247 -38t194.5 -109t127 -179.5t45.5 -242.5q0 -66 -12 -135t-40.5 -140t-69.5 -126t-105.5 -90t-142.5 -35q-88 0 -142.5 40t-62.5 99q-33 -54 -92.5 -90.5t-130.5 -36.5q-99 0 -152 64.5t-53 169.5q0 68 18.5 152 t48.5 151q79 184 258 184q63 0 108.5 -27.5t66.5 -74.5l16 53q4 13 10.5 16.5t20.5 3.5h26q15 0 20.5 -4t2.5 -20l-70 -348q-20 -95 -20 -134q0 -120 135 -120q75 0 131 43t85.5 113.5t43.5 144.5t14 151q0 217 -143 349t-393 132q-149 0 -276.5 -53t-217.5 -147 t-141 -229.5t-51 -295.5q0 -271 160 -409.5t444 -138.5q217 0 395 75q24 9 29 -10l8 -29q6 -22 -16 -32q-84 -39 -202.5 -62.5t-234.5 -23.5q-323 0 -499.5 165.5t-176.5 456.5zM594 532q0 -151 135 -151q80 0 136.5 62.5t76.5 160.5l21 101q12 61 12 102q0 61 -36.5 99 t-107.5 38q-62 0 -103.5 -31.5t-70.5 -93.5q-63 -135 -63 -287z" />
<glyph unicode="A" horiz-adv-x="1130" d="M-18 23q349 771 626 1269q17 33 58 33h55q39 0 47 -37q42 -233 82 -579.5t63 -683.5v-5q0 -20 -22 -20h-45q-27 0 -27 25q-11 178 -31 415h-520l-190 -417q-10 -23 -35 -23h-47q-18 0 -18 11q0 5 4 12zM307 522h473q-42 429 -88 721h-22q-174 -326 -363 -721z" />
<glyph unicode="B" horiz-adv-x="999" d="M33 57l237 1229q3 18 11.5 25t31.5 12q102 20 248 20q188 0 277.5 -60t89.5 -187q0 -91 -29 -170t-92.5 -139.5t-153.5 -84.5v-4q232 -20 232 -237q0 -107 -37.5 -208.5t-120.5 -160.5q-127 -92 -387 -92q-169 0 -283 20q-19 3 -23 11q-3 5 -2 13q0 6 1 13zM139 125 q-1 -6 -1 -10q0 -7 3 -11q5 -6 19 -10q66 -12 196 -12q203 0 308 78q58 45 89 125.5t31 168.5q0 110 -76 152q-77 43 -264 43h-202zM258 733h133q195 0 301 66q68 42 103.5 118t35.5 173q0 93 -67 132.5t-203 39.5q-108 0 -178 -13q-9 -2 -14.5 -4.5t-10 -8t-6.5 -15.5z" />
<glyph unicode="C" horiz-adv-x="1007" d="M86 315q0 107 70 484q29 159 77 266.5t116 168t147 85t186 24.5q86 0 170.5 -24.5t146.5 -63.5q14 -9 14 -20q0 -6 -3 -12l-19 -31q-12 -21 -35 -8q-131 76 -276 76q-72 0 -125.5 -13t-103 -46.5t-86 -91t-66.5 -147t-53 -214.5q-58 -320 -58 -418q0 -144 67 -204 t234 -60q152 0 297 57q12 6 19.5 2.5t11.5 -19.5l8 -34q3 -19 -14 -25q-71 -31 -162.5 -48t-171.5 -17q-208 0 -299.5 78.5t-91.5 254.5z" />
<glyph unicode="D" horiz-adv-x="1146" d="M27 37l243 1235q5 21 13.5 30.5t29.5 12.5q117 20 258 20q120 0 206.5 -19.5t152.5 -65t98.5 -126.5t32.5 -198q0 -147 -53 -365q-34 -142 -89 -243.5t-120.5 -162.5t-158.5 -96t-185.5 -47t-218.5 -12h-170q-25 0 -34 8q-6 6 -6 17q0 6 1 12zM133 104q-1 -5 -1 -8 q0 -14 15 -14h123q99 0 176 10.5t142.5 34t114.5 61t89 93.5t69 128.5t52 168.5q52 216 52 342q0 189 -92 261t-308 72q-109 0 -174 -10q-19 -3 -28 -11t-13 -30z" />
<glyph unicode="E" horiz-adv-x="954" d="M68 174q0 44 16 135q77 425 162 795q20 85 46.5 130t79 68t142.5 23h432q14 -1 18 -5q3 -3 2 -7q0 -3 -1 -8l-9 -43q-3 -12 -7.5 -15.5t-16.5 -3.5h-430q-74 0 -108 -31t-54 -120q-30 -128 -80 -365h520q13 0 17.5 -4.5t1.5 -15.5l-11 -45q-5 -19 -24 -19h-522 q-29 -144 -64 -352q-12 -76 -12 -119q0 -46 28 -67t89 -21h454q22 0 19 -21l-8 -43q-3 -12 -8 -16t-17 -4h-459q-104 0 -150 44t-46 130z" />
<glyph unicode="F" horiz-adv-x="876" d="M27 18l213 1094q12 64 32 103.5t56 68.5q57 41 166 41h419q11 0 17 -4q4 -3 3 -8q0 -3 -1 -6l-10 -45q-5 -21 -27 -21h-393q-81 0 -117 -27q-39 -31 -57 -133l-68 -350h526q13 0 17.5 -4.5t1.5 -15.5l-10 -45q-5 -19 -25 -19h-526l-123 -629q-3 -18 -23 -18h-53 q-21 0 -18 18z" />
<glyph unicode="G" horiz-adv-x="1118" d="M86 326q0 118 66 446q32 158 73 267.5t109 177.5q126 126 381 126q177 0 321 -83q15 -9 15 -21q0 -6 -4 -12l-19 -31q-12 -21 -35 -8q-135 72 -280 72q-72 0 -130 -13t-100.5 -33t-77 -57.5t-57 -74t-43 -95.5t-33 -108.5t-28.5 -126.5q-58 -279 -58 -408q0 -101 27 -160 t98 -90t197 -31q121 0 248 29q19 4 25.5 10.5t9.5 22.5l94 477h-238q-24 0 -18 21l10 45q5 18 25 18h307q12 0 17 -4.5t3 -13.5l-114 -586q-5 -24 -13 -35t-28 -18q-136 -47 -344 -47q-203 0 -304.5 78t-101.5 266z" />
<glyph unicode="H" horiz-adv-x="1189" d="M27 18l249 1289q3 18 23 18h53q11 0 15.5 -4.5t3.5 -13.5l-113 -580h698l113 580q3 18 23 18h53q21 0 18 -18l-250 -1289q-3 -18 -22 -18h-53q-11 0 -15.5 4.5t-3.5 13.5l121 627h-698l-121 -627q-3 -18 -23 -18h-53q-21 0 -18 18z" />
<glyph unicode="I" horiz-adv-x="413" d="M35 18l250 1289q3 18 22 18h53q11 0 15.5 -4.5t3.5 -13.5l-250 -1289q-3 -18 -23 -18h-53q-21 0 -18 18z" />
<glyph unicode="J" horiz-adv-x="579" d="M-92 18l8 48q1 10 6 13t17 3h84q149 0 208 117q30 60 58 207l174 901q3 18 22 18h54q21 0 18 -18l-176 -914q-26 -136 -66 -225q-39 -88 -113.5 -128t-189.5 -40h-88q-11 0 -14 4t-2 14z" />
<glyph unicode="K" horiz-adv-x="987" d="M27 18l249 1289q3 18 23 18h53q11 0 15.5 -4.5t3.5 -13.5l-113 -580h160q37 0 58 9t40 32l445 537q15 20 38 20h60q17 0 17 -12q0 -7 -7 -15l-502 -598q-10 -13 -10 -20q0 -6 6 -18l311 -639q12 -23 -18 -23h-51q-27 0 -35 18l-276 584q-12 27 -26.5 35t-47.5 8h-178 l-121 -627q-3 -18 -23 -18h-53q-21 0 -18 18z" />
<glyph unicode="L" horiz-adv-x="733" d="M53 123q0 28 17 125l204 1059q3 18 23 18h53q11 0 15.5 -4.5t3.5 -13.5l-211 -1088q-11 -64 -11 -86q0 -49 66 -49h362q11 0 14.5 -3.5t2.5 -12.5l-8 -50q-3 -18 -23 -18h-364q-144 0 -144 123z" />
<glyph unicode="M" horiz-adv-x="1501" d="M0 25q181 795 303 1243q9 32 26.5 44.5t51.5 12.5h39q35 0 52.5 -10.5t23.5 -42.5q142 -804 172 -965h22q198 341 531 969q13 27 32 38t50 11h53q32 -1 48 -13q12 -10 12 -32q0 -6 -1 -12q-83 -729 -158 -1243q-3 -25 -26 -25h-51q-22 0 -19 25q94 610 166 1216h-22 q-35 -65 -121.5 -224.5t-135.5 -249.5t-128 -231.5t-152 -267.5q-26 -45 -78 -45h-47q-53 0 -61 49q-60 317 -176 969h-19q-161 -602 -297 -1216q-6 -25 -27 -25h-45q-19 0 -19 16q0 4 1 9z" />
<glyph unicode="N" horiz-adv-x="1183" d="M27 23l239 1241q6 35 21.5 48t52.5 13h37q35 0 52 -13.5t28 -49.5l360 -1178h14l238 1221q5 20 25 20h49q15 0 15 -14q0 -4 -1 -8l-239 -1242q-6 -35 -21.5 -48t-52.5 -13h-37q-35 0 -52 13.5t-28 49.5l-360 1178h-15l-237 -1221q-5 -20 -25 -20h-49q-15 0 -15 14 q0 4 1 9z" />
<glyph unicode="O" horiz-adv-x="1161" d="M82 334q0 148 82 520q56 258 179.5 373.5t356.5 115.5q185 0 280 -83t95 -273q0 -178 -84 -516q-66 -265 -184.5 -377t-335.5 -112q-193 0 -291 81.5t-98 270.5zM180 348q0 -146 67 -214t226 -68q175 0 267.5 92t156.5 334q35 132 57.5 268t22.5 209q0 155 -66.5 223 t-218.5 68q-182 0 -280.5 -97t-153.5 -332q-78 -335 -78 -483z" />
<glyph unicode="P" horiz-adv-x="993" d="M27 18l243 1258q5 30 35 39q106 28 275 28q391 0 391 -299q0 -110 -37 -217.5t-107 -177.5q-125 -125 -401 -125h-207l-98 -506q-3 -18 -23 -18h-53q-21 0 -18 18zM236 610q70 -2 196 -2q232 0 328 99q55 58 84.5 145t29.5 178q0 122 -72 176t-233 54q-101 0 -178 -15 q-21 -4 -28.5 -13t-12.5 -32z" />
<glyph unicode="Q" horiz-adv-x="1161" d="M82 334q0 148 82 520q56 258 179.5 373.5t356.5 115.5q185 0 280 -83t95 -273q0 -178 -84 -516q-54 -219 -142 -331t-233 -144q71 -131 238 -268q19 -16 2 -27l-55 -37q-6 -4 -13 -4q-12 0 -26 12q-151 138 -242 312q-16 -2 -49 -2q-193 0 -291 81.5t-98 270.5zM180 348 q0 -146 67 -214t226 -68q175 0 267.5 92t156.5 334q35 132 57.5 268t22.5 209q0 155 -66.5 223t-218.5 68q-182 0 -280.5 -97t-153.5 -332q-78 -335 -78 -483z" />
<glyph unicode="R" horiz-adv-x="1005" d="M27 18l243 1266q6 34 33 39q88 20 236 20q213 0 316 -63t103 -211q0 -177 -86.5 -306.5t-250.5 -160.5l231 -582q9 -20 -12 -20h-62q-20 0 -28 18l-218 549q-7 19 -28 19q-86 -4 -133 -4q-60 0 -142 4l-108 -568q-3 -18 -23 -18h-53q-21 0 -18 18zM246 672q106 -4 190 -4 q116 0 190 19t122 67q54 54 84 135.5t30 159.5q0 123 -78.5 167t-257.5 44q-71 0 -135 -11q-21 -3 -28.5 -11.5t-12.5 -31.5z" />
<glyph unicode="S" horiz-adv-x="980" d="M2 78l16 41q7 22 31 10q135 -63 289 -63q290 0 356 229q25 91 25 143q0 75 -39.5 116.5t-144.5 68.5l-160 41q-109 28 -156 80.5t-47 150.5q0 74 37 203q36 119 131 182t272 63q156 0 289 -47q16 -5 16 -18q0 -4 -2 -10l-12 -39q-6 -17 -33 -8q-133 39 -266 39 q-138 0 -207.5 -49t-99.5 -154q-25 -87 -25 -154q0 -60 30.5 -97t111.5 -58l166 -43q134 -35 186.5 -91.5t52.5 -158.5q0 -67 -31 -172q-87 -301 -444 -301q-188 0 -332 67q-12 6 -12 17q0 6 2 12z" />
<glyph unicode="T" horiz-adv-x="937" d="M143 1262l11 45q3 18 26 18h834q21 0 18 -18l-10 -50q-1 -10 -6 -13t-17 -3h-374l-238 -1223q-3 -18 -22 -18h-56q-21 0 -18 18l237 1223h-366q-20 0 -20 14q0 3 1 7z" />
<glyph unicode="U" horiz-adv-x="1140" d="M78 281q0 70 37 260l147 766q3 18 23 18h55q21 0 18 -18l-170 -869q-16 -88 -16 -153q0 -219 289 -219q94 0 155.5 14.5t112.5 55.5t83 113.5t54 188.5l166 869q3 18 23 18h55q21 0 18 -18l-170 -881q-49 -255 -156.5 -349.5t-346.5 -94.5q-377 0 -377 299z" />
<glyph unicode="V" horiz-adv-x="1011" d="M150 1309q0 9 4 12q6 4 20 4h47q27 0 29 -20q35 -498 133 -1221h16q282 514 590 1221q7 20 35 20h51q13 0 19 -5q3 -3 4 -7q0 -3 -2 -8q-130 -283 -198 -428t-184.5 -378.5t-226.5 -432.5q-21 -38 -39 -52t-49 -14h-37q-34 0 -49.5 16t-21.5 58q-141 972 -141 1235z" />
<glyph unicode="W" horiz-adv-x="1589" d="M152 1305q0 13 6 16.5t22 3.5h41q18 0 23.5 -3.5t5.5 -16.5q0 -657 33 -1221h16q165 346 483 1114q15 36 33 49t51 13h45q37 0 51 -12.5t15 -49.5q20 -630 55 -1114h17q327 696 526 1221q7 20 35 20h43q22 0 22 -12q0 -4 -2 -8q-242 -618 -536 -1225q-22 -45 -41 -62.5 t-54 -17.5h-34q-61 0 -66 78q-24 300 -55 1091h-19q-229 -546 -483 -1099q-17 -38 -37 -54t-51 -16h-37q-32 0 -45 16t-16 58q-38 501 -47 1231z" />
<glyph unicode="X" horiz-adv-x="976" d="M-82 29l412 639q10 13 10 28q0 11 -8 35l-166 572q-6 22 22 22h41q28 0 33 -18l152 -545q6 -21 16.5 -29t34.5 -8h35q23 0 35.5 8t27.5 31l365 545q11 16 28 16h68q16 0 16 -10q0 -7 -8 -19l-405 -583q-11 -15 -11 -25q0 -5 7 -26l219 -639q7 -23 -23 -23h-45 q-28 0 -33 18l-194 596q-6 19 -15.5 24t-35.5 5h-39q-18 0 -25.5 -1t-16.5 -7.5t-18 -20.5l-379 -598q-11 -16 -28 -16h-64q-16 0 -16 10q0 7 8 19z" />
<glyph unicode="Y" horiz-adv-x="890" d="M145 1309q0 16 19 16h55q12 0 17 -3t6 -13q32 -382 166 -740h16q138 182 246.5 356.5t214.5 387.5q6 12 22 12h60q15 0 15 -9q0 -3 -1 -7q-113 -228 -236.5 -425t-300.5 -425l-86 -441q-3 -18 -22 -18h-55q-11 0 -15.5 4t-3.5 14l88 447q-164 420 -205 844z" />
<glyph unicode="Z" horiz-adv-x="970" d="M-31 23l2 18q3 26 14.5 47t47.5 66l846 1087h-672q-20 0 -17 19l11 47q3 18 24 18h736q17 0 25 -7q6 -6 5 -16v-6l-2 -22q-3 -28 -19 -55.5t-63 -85.5l-819 -1049h674q21 0 18 -18l-10 -48q-3 -18 -25 -18h-749q-30 0 -27 23z" />
<glyph unicode="[" horiz-adv-x="505" d="M-18 -174l303 1556q3 15 16 15h293q9 0 12 -3t2 -12l-10 -55q-2 -14 -20 -14h-209l-275 -1417h207q17 0 14 -15l-10 -55q-2 -14 -20 -14h-291q-8 0 -10.5 2.5t-1.5 11.5z" />
<glyph unicode="\" horiz-adv-x="620" d="M184 1399q-3 14 13 14h57q17 0 20 -14l162 -1438q3 -14 -12 -14h-57q-18 0 -21 14z" />
<glyph unicode="]" horiz-adv-x="514" d="M-117 -174l11 55q2 15 20 15h209l274 1417h-207q-9 0 -12 2.5t-2 11.5l10 55q2 15 21 15h291q14 0 12 -15l-303 -1556q-2 -14 -17 -14h-292q-10 0 -13 2.5t-2 11.5z" />
<glyph unicode="^" horiz-adv-x="1048" d="M166 756l399 463q12 13 22 17.5t29 4.5h66q19 0 29.5 -6.5t19.5 -26.5l213 -465q9 -18 -12 -26l-41 -19q-22 -11 -31 7l-209 430h-18l-391 -435q-17 -17 -33 -6l-41 33q-16 13 -2 29z" />
<glyph unicode="_" horiz-adv-x="989" d="M-96 -170l6 39q2 12 16 12h848q6 0 7.5 -2.5t0.5 -9.5l-6 -39q-2 -12 -16 -12h-848q-8 0 -8 12z" />
<glyph unicode="`" horiz-adv-x="579" d="M186 1403l23 49q10 21 33 12l401 -172q15 -6 10 -22l-20 -51q-6 -13 -23 -7l-397 144q-43 14 -27 47z" />
<glyph unicode="a" horiz-adv-x="933" d="M33 174q0 92 39 211q29 91 98 137q85 58 264 58h98q86 0 162 -13l15 74q22 110 22 162q0 77 -49.5 108t-165.5 31q-128 0 -262 -43q-22 -6 -25 10l-6 45q-3 18 15 23q150 45 297 45q281 0 286 -199q0 -53 -28 -209l-113 -598q-3 -16 -18 -16h-48q-19 0 -16 20l12 89h-4 q-91 -127 -299 -127h-22q-135 0 -193.5 47.5t-58.5 144.5zM123 186q0 -66 42 -95.5t136 -29.5h18q137 0 222 68.5t108 194.5l31 165q-83 11 -156 11h-114q-131 0 -191 -45q-40 -30 -63 -97q-33 -105 -33 -172z" />
<glyph unicode="b" horiz-adv-x="980" d="M72 227q0 68 39 260l174 885q3 14 18 14h57q16 0 13 -14l-90 -452h4q96 102 299 102q194 0 256 -121q28 -61 28 -147q0 -140 -59 -400q-46 -203 -144.5 -287.5t-293.5 -84.5q-168 0 -234.5 58t-66.5 187zM162 238q0 -97 45.5 -137t169.5 -40q160 0 233 65.5t113 244.5 q55 238 55 364q0 116 -49.5 161.5t-161.5 45.5q-142 0 -223.5 -65t-110.5 -213l-38 -203q-3 -19 -10 -53.5t-10 -51t-6.5 -40.5t-5 -42t-1.5 -36z" />
<glyph unicode="c" horiz-adv-x="835" d="M63 250q0 106 60 373q28 129 61 198t90 119q94 82 271 82q146 0 262 -66q13 -7 13 -18q0 -5 -3 -10l-18 -37q-9 -17 -31 -6q-117 57 -233 57q-128 0 -195 -61q-43 -37 -72 -98.5t-57 -174.5q-55 -226 -55 -350q0 -105 54.5 -151t182.5 -46q50 0 121.5 16t126.5 38 q18 7 23 -11l8 -38q3 -13 -1 -18.5t-16 -10.5q-57 -24 -134 -39.5t-146 -15.5q-155 0 -233.5 62.5t-78.5 205.5z" />
<glyph unicode="d" horiz-adv-x="964" d="M63 250q0 99 52 371q21 116 55 194t84 123.5t112 64.5t146 19q208 0 276 -141h3l96 491q3 14 18 14h58q13 0 13 -10q0 -2 -1 -4l-203 -1036q-21 -108 -55 -178t-87 -108.5t-115.5 -53t-152.5 -14.5q-159 0 -229 65.5t-70 202.5zM154 254q0 -100 52.5 -146.5t168.5 -46.5 q145 0 213 63.5t98 215.5l53 270q13 66 13 123q0 102 -63.5 155.5t-174.5 53.5q-137 0 -207 -74.5t-106 -265.5q-47 -239 -47 -348z" />
<glyph unicode="e" horiz-adv-x="892" d="M63 250q0 111 62 426q37 186 125 266q93 80 270 80q289 0 289 -246q0 -92 -43 -303q-7 -33 -43 -33h-553q-18 -105 -18 -180q0 -111 54 -155t191 -44q117 0 267 52q19 8 22 -11l8 -41q2 -11 -1 -15.5t-13 -8.5q-145 -55 -295 -55q-179 0 -250.5 67t-71.5 201zM184 518 h473q26 0 31 29q31 148 31 219q0 94 -53 135t-158 41q-137 0 -203.5 -64t-99.5 -245z" />
<glyph unicode="f" horiz-adv-x="522" d="M-47 -344q47 118 77.5 234t63.5 296l131 736h-123q-15 0 -12 16l6 33q5 15 21 18l127 19l12 57q21 98 43.5 157t61.5 103.5t95.5 62t143.5 17.5q92 0 156 -23q17 -7 14 -22l-10 -37q-6 -17 -27 -12q-68 14 -127 14q-124 0 -174 -48t-82 -204l-14 -69h227q15 0 12 -15 l-10 -55q-3 -12 -16 -12h-232l-129 -701q-40 -220 -70 -336t-77 -231q-6 -16 -25 -16h-51q-14 0 -14 10q0 3 2 8z" />
<glyph unicode="g" horiz-adv-x="964" d="M66 256q0 92 53 381q20 112 53.5 187t84 118.5t113 61.5t148.5 18q98 0 168.5 -35t97.5 -104h2l29 100q4 14 9 17.5t18 3.5h35q20 0 20 -18v-5l-195 -985q-21 -107 -46.5 -174.5t-67.5 -116t-103.5 -68.5t-152.5 -20q-66 0 -137 12t-115 31q-15 6 -15 17q0 3 1 6l14 41 q3 10 7.5 12t16.5 -2q109 -39 230 -39q135 0 194 67.5t93 233.5l22 108h-6q-80 -122 -287 -122q-144 0 -214 68t-70 206zM154 258q0 -197 204 -197q143 0 223.5 71.5t108.5 217.5l49 250q13 67 13 137q0 93 -61.5 149t-166.5 56q-143 0 -213.5 -69t-105.5 -248 q-51 -260 -51 -367z" />
<glyph unicode="h" horiz-adv-x="991" d="M35 16l262 1356q3 14 18 14h58q15 0 12 -14l-94 -483h4q102 133 323 133q256 0 256 -219q0 -60 -38 -271l-99 -518q-3 -14 -18 -14h-55q-18 0 -15 16l113 586q24 126 24 180q0 81 -44.5 120.5t-145.5 39.5q-141 0 -231.5 -75t-124.5 -249l-117 -604q-3 -14 -19 -14h-55 q-17 0 -14 16z" />
<glyph unicode="i" horiz-adv-x="446" d="M68 14l188 975q3 15 18 15h60q15 0 12 -15l-188 -975q-3 -14 -19 -14h-59q-12 0 -12 10v4zM279 1214q-5 9 -5 25q0 20 7 51q9 38 28.5 52t59.5 14h6q44 0 54 -23q4 -9 4 -24q0 -22 -9 -58q-8 -36 -26 -46.5t-56 -10.5h-8q-44 0 -55 20z" />
<glyph unicode="j" horiz-adv-x="415" d="M-295 -342l8 47q2 14 19 14h39q119 0 192 76q53 55 82 213l186 981q3 15 19 15h59q16 0 13 -15l-191 -991q-34 -187 -115 -268q-88 -88 -262 -88h-33q-19 0 -16 16zM254 1214q-5 8 -5 25q0 20 7 51q9 38 28.5 52t59.5 14h6q44 0 54 -23q4 -9 4 -24q0 -23 -9 -58 q-8 -36 -25.5 -46.5t-56.5 -10.5h-8q-44 0 -55 20z" />
<glyph unicode="k" horiz-adv-x="876" d="M43 16l262 1356q3 14 19 14h57q15 0 12 -14l-151 -797h118q38 0 68 35l338 381q10 13 25 13h67q15 0 15 -7q0 -5 -7 -14l-389 -434q-8 -12 -8 -17q0 -6 4 -14l229 -502q8 -16 -10 -16h-61q-17 0 -25 16l-203 453q-6 14 -14.5 19.5t-26.5 5.5h-137l-94 -480 q-3 -14 -18 -14h-56q-17 0 -14 16z" />
<glyph unicode="l" horiz-adv-x="497" d="M74 123q0 41 12 106l221 1143q3 14 19 14h57q13 0 13 -10q0 -2 -1 -4l-221 -1147q-10 -49 -10 -86q0 -32 16.5 -46.5t57.5 -14.5h94q15 0 12 -15l-8 -49q-3 -14 -25 -14h-86q-81 0 -116 30t-35 93z" />
<glyph unicode="m" horiz-adv-x="1585" d="M37 16l188 977q3 11 15 11h53q15 0 12 -15l-10 -100h4q47 62 128 97.5t187 35.5q189 0 242 -150q57 64 150.5 107t199.5 43q129 0 194.5 -60t65.5 -167q0 -57 -32 -238l-103 -543q-3 -14 -18 -14h-56q-17 0 -14 16l109 566q26 140 26 192q0 85 -46 126.5t-144 41.5 q-90 0 -172.5 -41t-145.5 -117q-5 -74 -32 -227l-103 -543q-3 -14 -18 -14h-55q-18 0 -15 16l109 566q26 137 26 184q0 88 -48 132t-134 44q-296 0 -358 -324l-117 -604q-3 -14 -19 -14h-55q-17 0 -14 16z" />
<glyph unicode="n" horiz-adv-x="993" d="M37 16l188 977q3 11 15 11h53q15 0 12 -15l-10 -100h4q96 133 322 133q256 0 256 -219q0 -55 -39 -271l-99 -518q-3 -14 -18 -14h-55q-18 0 -15 16l113 586q24 126 24 180q0 81 -44.5 120.5t-145.5 39.5q-142 0 -232.5 -74t-123.5 -250l-117 -604q-3 -14 -19 -14h-55 q-17 0 -14 16z" />
<glyph unicode="o" horiz-adv-x="964" d="M63 250q0 109 54 362q49 228 149 319t291 91q150 0 223.5 -66t73.5 -188q0 -159 -53 -377q-55 -226 -150.5 -317.5t-288.5 -91.5q-157 0 -228 66.5t-71 201.5zM156 260q0 -98 49.5 -148.5t171.5 -50.5q150 0 221.5 80.5t118.5 288.5q45 203 45 313q0 104 -50.5 151.5 t-170.5 47.5q-153 0 -223 -79.5t-117 -289.5q-45 -203 -45 -313z" />
<glyph unicode="p" horiz-adv-x="1005" d="M-33 -346l256 1339q3 11 15 11h55q15 0 12 -15l-10 -98h4q48 67 120.5 99t184.5 32q152 0 222.5 -65t70.5 -191q0 -121 -45 -346q-27 -131 -63.5 -216.5t-89.5 -134.5t-116 -68t-153 -19q-118 0 -183.5 38.5t-94.5 112.5h-7l-90 -481q-3 -14 -18 -14h-55q-18 0 -15 16z M186 293q0 -106 59 -169t193 -63q95 0 154.5 33t101 115t72.5 231q41 189 41 316q0 95 -50.5 140.5t-166.5 45.5q-65 0 -115.5 -13t-97 -44.5t-79 -91t-50.5 -146.5l-51 -254q-11 -64 -11 -100z" />
<glyph unicode="q" horiz-adv-x="964" d="M66 256q0 96 53 377q21 115 56 192.5t86.5 120t112 59.5t144.5 17q98 0 168.5 -35t97.5 -104h2l29 100q4 14 9 17.5t18 3.5h35q21 0 21 -16q0 -3 -1 -7l-258 -1329q-3 -14 -18 -14h-54q-17 0 -14 16l90 450h-6q-80 -122 -287 -122q-144 0 -214 68t-70 206zM154 258 q0 -197 204 -197q143 0 223.5 71.5t108.5 217.5l49 250q13 67 13 137q0 93 -61.5 149t-166.5 56q-144 0 -213 -68t-104 -249q-53 -270 -53 -367z" />
<glyph unicode="r" horiz-adv-x="598" d="M37 16l188 977q3 11 15 11h53q15 0 12 -15l-12 -106h4q83 121 246 121h75q18 0 15 -15l-12 -53q-5 -14 -21 -14h-65q-134 0 -202 -89t-104 -276l-104 -543q-3 -14 -19 -14h-55q-17 0 -14 16z" />
<glyph unicode="s" horiz-adv-x="802" d="M-8 68l14 36q8 20 29 11q130 -54 248 -54q101 0 160.5 29t91.5 94q32 66 32 146q0 47 -35.5 77.5t-119.5 55.5l-113 33q-102 29 -143 75t-41 115q0 64 22 137q62 199 328 199q131 0 242 -43q13 -6 13 -18q0 -4 -1 -9l-14 -39q-6 -18 -27 -10q-104 37 -223 37 q-100 0 -154 -32t-78 -97q-20 -59 -20 -115q0 -44 29 -74t108 -53l111 -32q120 -36 161 -79.5t41 -123.5q0 -78 -39 -174q-73 -178 -333 -178q-153 0 -279 57q-13 5 -13 17q0 5 3 12z" />
<glyph unicode="t" horiz-adv-x="579" d="M82 938l6 33q2 15 21 18l129 19l47 237q3 15 18 15h57q16 0 13 -15l-47 -241h243q15 0 13 -15l-11 -55q-3 -12 -16 -12h-246l-96 -523q-33 -183 -33 -221q0 -53 33.5 -76.5t110.5 -23.5h112q16 0 13 -15l-11 -49q-3 -14 -18 -14h-113q-107 0 -161 39.5t-54 128.5 q0 21 2 45t6.5 52.5t8 47.5t10 53t8.5 46l94 510h-127q-12 0 -12 11v5z" />
<glyph unicode="u" horiz-adv-x="974" d="M74 213q0 50 16 129l123 647q3 15 18 15h58q15 0 12 -15l-123 -637q-16 -78 -16 -133q0 -80 50.5 -119t166.5 -39q80 0 129 12.5t86 43.5q70 59 108 245l121 627q3 15 19 15h57q13 0 13 -10q0 -2 -1 -5l-125 -645q-23 -113 -54 -183.5t-81 -109.5q-47 -38 -111 -53.5 t-173 -15.5q-150 0 -221.5 57t-71.5 174z" />
<glyph unicode="v" horiz-adv-x="823" d="M90 985q0 19 19 19h49q11 0 15.5 -3t4.5 -14q26 -490 94 -907h17q276 465 463 907q6 17 24 17h60q13 0 13 -10q0 -5 -3 -11q-241 -542 -484 -932q-19 -31 -34.5 -41t-38.5 -10h-39q-46 0 -55 53q-76 423 -105 932z" />
<glyph unicode="w" horiz-adv-x="1306" d="M94 981q0 13 6 18t21 5h35q16 0 22 -4.5t6 -18.5q0 -537 35 -901h12q192 385 379 827q12 30 25.5 38.5t42.5 8.5h47q28 0 40.5 -14.5t14.5 -46.5q17 -397 58 -813h12q186 369 385 903q8 21 31 21h43q17 0 21 -7q2 -3 2 -7q0 -5 -3 -13q-183 -482 -397 -914 q-31 -63 -86 -63h-25q-31 0 -47 15t-20 53q-37 314 -58 800h-10q-152 -354 -371 -805q-18 -37 -35.5 -50t-52.5 -13h-28q-31 0 -46 15t-18 51q-41 390 -41 915z" />
<glyph unicode="x" horiz-adv-x="843" d="M-75 5q-1 2 -1 4q0 4 4 9l342 482q9 12 9 20q0 3 -1 5.5t-2 6.5t-2 7l-174 446q-3 9 1.5 14t19.5 5h41q22 0 28 -17l158 -403q8 -20 16 -28.5t21 -8.5h12q15 0 24 7t30 34l303 401q12 15 30 15h58q12 0 16 -6q1 -2 1 -5q0 -5 -5 -12l-354 -457q-13 -16 -13 -22l5 -15 l210 -467q10 -20 -12 -20h-53q-14 0 -20.5 4t-10.5 16l-182 420q-8 18 -15.5 24.5t-23.5 6.5h-12q-27 0 -47 -29l-301 -428q-12 -14 -35 -14h-51q-11 0 -14 5z" />
<glyph unicode="y" horiz-adv-x="808" d="M94 987q0 17 17 17h59q16 0 16 -17q16 -490 64 -821q4 -34 22.5 -48t53.5 -14q195 350 415 885q5 15 23 15h59q17 0 17 -10q0 -4 -2 -9q-120 -288 -265 -582q-165 -331 -393 -741q-7 -12 -17 -12q-4 0 -9 2l-45 20q-20 10 -9 29q109 184 183 324q-52 5 -79 31t-36 85 q-43 284 -74 846z" />
<glyph unicode="z" horiz-adv-x="823" d="M-31 23l4 22q3 18 8 27.5t25 33.5l660 820h-514q-14 0 -11 14l9 51q3 13 16 13h606q14 0 19 -4.5t4 -16.5l-2 -18q-2 -23 -39 -70l-668 -817h518q13 0 10 -15l-8 -51q-2 -12 -16 -12h-600q-24 0 -21 23z" />
<glyph unicode="{" horiz-adv-x="581" d="M47 580l10 53q2 9 5.5 13t13.5 5q95 19 142 65.5t67 145.5l67 348q21 103 68 145t147 42h74q17 0 14 -15l-12 -55q-3 -14 -18 -14h-66q-57 0 -80.5 -24.5t-38.5 -98.5l-61 -311q-26 -129 -82 -197.5t-156 -77.5v-6q95 -25 124.5 -89t4.5 -192l-55 -280q-14 -77 -14 -94 q0 -25 15.5 -36t55.5 -11h76q17 0 14 -15l-12 -55q-3 -14 -18 -14h-72q-151 0 -151 108q0 28 8 78l63 330q21 105 -6.5 155t-112.5 74q-17 5 -14 23z" />
<glyph unicode="|" horiz-adv-x="399" d="M20 -29l279 1428q3 18 20 18h52q15 0 12 -18l-279 -1428q-3 -18 -18 -18h-51q-18 0 -15 18z" />
<glyph unicode="}" horiz-adv-x="583" d="M-100 -174l12 55q3 15 18 15h66q57 0 80.5 24t38.5 98l61 312q26 129 82 197t156 77v6q-95 25 -124.5 89t-4.5 192l55 280q14 77 14 95q0 25 -15.5 36t-55.5 11h-76q-17 0 -14 14l12 55q3 15 18 15h72q151 0 151 -109q0 -28 -8 -78l-63 -329q-21 -105 6.5 -155.5 t112.5 -74.5q10 -3 13 -7t1 -15l-10 -54q-2 -9 -5.5 -13t-13.5 -5q-95 -19 -142 -65.5t-67 -145.5l-67 -348q-21 -103 -68 -144.5t-147 -41.5h-74q-17 0 -14 14z" />
<glyph unicode="~" horiz-adv-x="1048" d="M51 588q71 127 143 179t162 52q76 0 160 -65l100 -80q36 -29 62 -39t61 -10q52 0 110.5 43t111.5 123q11 16 26 4l37 -25q16 -11 6 -27q-136 -219 -301 -219q-86 0 -170 66l-94 74q-39 31 -67 44t-62 13q-93 0 -207 -176q-12 -18 -31 -8l-43 24q-14 9 -4 27z" />
<glyph unicode="&#xa1;" horiz-adv-x="448" d="M-16 -297l209 1014q3 14 18 14h41q19 0 16 -16l-188 -1012q-3 -16 -19 -16h-59q-11 0 -15 3t-3 13zM188 877q0 13 13 73q9 40 27 56t55 16h16q53 0 53 -45q0 -16 -10 -72q-14 -74 -80 -74h-18q-56 0 -56 46z" />
<glyph unicode="&#xa2;" d="M158 250q0 111 59 373q28 128 61.5 197.5t90.5 119.5q89 76 247 82l37 182q5 21 29 21h29q28 0 22 -23l-37 -184q116 -12 207 -60q17 -10 8 -28l-18 -37q-9 -17 -31 -6q-81 41 -180 51l-172 -877q113 10 219 50q23 9 29 -13l8 -32q5 -21 -16 -29q-114 -49 -254 -55 l-33 -170q-5 -21 -29 -21h-26q-29 0 -23 25l33 168q-130 9 -195 72t-65 194zM250 258q0 -94 42 -140t140 -55l170 877q-109 -6 -168 -59q-43 -37 -72 -98.5t-57 -174.5q-55 -226 -55 -350z" />
<glyph unicode="&#xa3;" d="M-6 25l6 34q4 24 31 45q82 61 127 109.5t78 119.5t53 177l26 139h-116q-18 0 -15 15l6 34q3 17 27 21l117 20l37 199q44 221 127 307q95 98 278 98q143 0 258 -59q22 -11 10 -31l-16 -32q-9 -17 -31 -9q-115 48 -221 48q-138 0 -208.5 -68.5t-104.5 -255.5l-39 -201h385 q17 0 14 -16l-10 -57q-3 -13 -18 -13h-387l-21 -104q-34 -176 -89 -281t-163 -176v-4h664q21 0 18 -18l-10 -50q-3 -16 -23 -16h-766q-29 0 -24 25z" />
<glyph unicode="&#xa4;" horiz-adv-x="1056" d="M10 172q-12 16 6 31l181 147q-37 66 -37 160q0 171 114 295l-114 139q-12 16 6 31l43 35q20 16 33 0l114 -140q107 66 240 66q118 0 203 -68l182 148q20 16 33 0l33 -41q12 -15 -7 -31l-180 -147q37 -66 37 -150q0 -180 -115 -305l115 -139q12 -16 -6 -31l-43 -35 q-20 -17 -33 0l-115 139q-106 -65 -239 -65q-118 0 -203 68l-182 -148q-20 -17 -33 0zM258 522q0 -112 59.5 -168.5t157.5 -56.5q148 0 236 94t88 242q0 110 -61.5 163.5t-155.5 53.5q-147 0 -235.5 -94.5t-88.5 -233.5z" />
<glyph unicode="&#xa5;" d="M109 260l8 47q3 19 22 19h271l36 180h-272q-11 0 -14.5 4.5t-1.5 15.5l8 47q3 19 22 19h226q-135 398 -181 717q-2 8 3.5 12t15.5 4h55q12 0 17 -3t6 -13q59 -406 176 -717h10q139 186 241 350t208 371q6 12 20 12h70q20 0 14 -16q-190 -366 -457 -717h217q20 0 17 -21 l-8 -47q-3 -18 -23 -18h-272l-37 -180h274q20 0 17 -21l-9 -47q-3 -18 -22 -18h-277l-43 -222q-3 -18 -22 -18h-55q-11 0 -15.5 4t-3.5 14l43 222h-270q-17 0 -14 20z" />
<glyph unicode="&#xa6;" horiz-adv-x="399" d="M20 -29l95 484q3 18 20 18h51q16 0 13 -18l-95 -484q-3 -18 -18 -18h-51q-18 0 -15 18zM205 913l94 486q3 18 20 18h52q15 0 12 -18l-94 -486q-3 -18 -21 -18h-51q-15 0 -12 18z" />
<glyph unicode="&#xa7;" horiz-adv-x="856" d="M39 59l12 31q5 11 10 13t23 -3q110 -39 225 -39q173 0 221 86q33 61 33 123q0 59 -34 88t-115 52l-119 36q-156 47 -156 172q0 64 25 130q19 49 64 88.5t102 54.5q-105 43 -105 158q0 58 19 114q34 98 111.5 139t209.5 41q129 0 223 -34q22 -8 17 -27l-10 -35 q-6 -17 -25 -12q-102 29 -199 29q-108 0 -163.5 -26.5t-81.5 -94.5q-15 -43 -15 -84q0 -51 33.5 -79.5t124.5 -49.5l86 -21q94 -23 136 -65t42 -109q0 -66 -22 -121q-48 -118 -166 -165q104 -49 104 -162q0 -72 -28 -142q-36 -89 -116 -126t-202 -37q-64 0 -134.5 14 t-119.5 35q-19 8 -10 28zM225 631q0 -45 25.5 -71.5t93.5 -47.5l115 -35q61 18 105.5 58.5t64.5 89.5q18 47 18 96q0 47 -29 74t-108 47l-90 20q-133 -28 -176 -135q-19 -55 -19 -96z" />
<glyph unicode="&#xa8;" horiz-adv-x="673" d="M209 1300q0 16 10 68q15 74 88 74h31q61 0 61 -51q0 -21 -10 -66q-9 -40 -30 -56t-62 -16h-25q-63 0 -63 47zM539 1300q0 16 10 68q15 74 88 74h31q61 0 61 -51q0 -21 -10 -66q-9 -40 -30 -56t-62 -16h-25q-63 0 -63 47z" />
<glyph unicode="&#xa9;" horiz-adv-x="1658" d="M82 549q0 159 47 301.5t131 251.5t196.5 189t247 121.5t277.5 41.5q273 0 434.5 -154.5t161.5 -422.5q0 -198 -73 -369t-196 -287.5t-287 -183t-343 -66.5q-273 0 -434.5 155t-161.5 423zM174 551q0 -237 140.5 -365.5t381.5 -128.5q161 0 306 61.5t251.5 168.5t169 260 t62.5 327q0 237 -140.5 365.5t-381.5 128.5q-161 0 -306 -61.5t-251.5 -168.5t-169 -260t-62.5 -327zM487 549q0 130 46 273t124 233q108 123 287 123q104 0 195 -48q10 -6 11 -12.5t-5 -19.5l-12 -27q-9 -19 -27 -10q-83 39 -164 39q-131 0 -205 -80t-115.5 -215.5 t-41.5 -255.5q0 -199 186 -199q105 0 205 41q17 6 22 -10l11 -33q5 -18 -13 -26q-126 -52 -246 -52q-126 0 -192 70.5t-66 208.5z" />
<glyph unicode="&#xaa;" horiz-adv-x="598" d="M86 729q0 37 14 102q17 84 70.5 115t171.5 31h68q34 0 84 -4l8 39q10 48 10 69q0 40 -28.5 57t-90.5 17q-89 0 -172 -27q-10 -3 -13 -0.5t-5 11.5l-8 37q-2 12 12 18q102 31 199 31q188 0 188 -131q0 -26 -12 -93l-72 -366q-3 -14 -16 -14h-33q-17 0 -17 14l2 49h-4 q-55 -74 -180 -74h-31q-73 0 -109 28.5t-36 90.5zM170 735q0 -31 20 -44t62 -13h35q76 0 121 41t59 115l14 71q-32 4 -80 4h-77q-71 0 -101.5 -18.5t-42.5 -75.5q-10 -55 -10 -80z" />
<glyph unicode="&#xab;" horiz-adv-x="919" d="M57 457l4 24q6 27 23 39l319 230q15 12 27 -2l27 -33q10 -14 -4 -25l-281 -227l184 -215q10 -14 -4 -25l-28 -24q-14 -11 -25 0l-227 225q-18 18 -15 33zM420 457l4 24q6 28 22 39l320 230q15 12 27 -2l26 -33q10 -14 -4 -25l-280 -227l184 -215q10 -14 -4 -25l-29 -24 q-13 -11 -24 0l-228 225q-17 17 -14 33z" />
<glyph unicode="&#xac;" horiz-adv-x="1048" d="M63 506l13 59q3 15 16 15h801q16 0 12 -15l-90 -459q-3 -14 -18 -14h-54q-17 0 -14 14l76 386h-729q-16 0 -13 14z" />
<glyph unicode="&#xad;" horiz-adv-x="563" d="M35 512l12 53q3 15 16 15h392q15 0 12 -15l-12 -53q-3 -14 -17 -14h-391q-15 0 -12 14z" />
<glyph unicode="&#xae;" horiz-adv-x="1658" d="M82 549q0 159 47 301.5t131 251.5t196.5 189t247 121.5t277.5 41.5q273 0 434.5 -154.5t161.5 -422.5q0 -198 -73 -369t-196 -287.5t-287 -183t-343 -66.5q-273 0 -434.5 155t-161.5 423zM174 551q0 -237 140.5 -365.5t381.5 -128.5q161 0 306 61.5t251.5 168.5t169 260 t62.5 327q0 237 -140.5 365.5t-381.5 128.5q-161 0 -306 -61.5t-251.5 -168.5t-169 -260t-62.5 -327zM492 303l163 807q3 20 12.5 30.5t32.5 14.5q82 16 193 16q252 0 252 -210q0 -127 -75 -205.5t-187 -98.5l125 -348q9 -24 -19 -24h-35q-16 0 -21.5 4.5t-10.5 17.5 l-123 344h-152l-69 -348q-4 -18 -25 -18h-45q-11 0 -14 4t-2 14zM664 727h120q141 0 207 66q62 62 62 155q0 76 -40.5 110t-127.5 34q-71 0 -127 -9q-16 -3 -21 -8t-8 -22z" />
<glyph unicode="&#xaf;" horiz-adv-x="669" d="M213 1323l12 55q6 23 25 23h473q22 0 16 -25l-12 -55q-6 -23 -25 -23h-473q-22 0 -16 25z" />
<glyph unicode="&#xb0;" horiz-adv-x="602" d="M156 1184q0 119 79 194.5t199 75.5q88 0 140.5 -49t52.5 -125q0 -126 -77 -202.5t-202 -76.5q-86 0 -139 52t-53 131zM244 1194q0 -53 32 -85t86 -32q78 0 127.5 51.5t49.5 137.5q0 51 -32.5 81.5t-86.5 30.5q-74 0 -125 -51.5t-51 -132.5z" />
<glyph unicode="&#xb1;" horiz-adv-x="1048" d="M-20 14l12 60q3 14 16 14h801q15 0 12 -14l-12 -60q-3 -14 -16 -14h-801q-15 0 -12 14zM113 700l12 60q3 14 16 14h357l69 356q3 15 17 15h57q17 0 14 -15l-69 -356h356q15 0 12 -14l-12 -60q-3 -14 -16 -14h-357l-69 -358q-3 -15 -17 -15h-57q-17 0 -14 15l69 358h-356 q-15 0 -12 14z" />
<glyph unicode="&#xb2;" horiz-adv-x="630" d="M152 952l8 43q19 109 65 167.5t144 94.5l98 35q66 24 93.5 58.5t27.5 97.5q0 45 -30.5 65.5t-102.5 20.5q-68 0 -138 -18q-19 -5 -22 12l-6 37q-3 15 14 20q82 21 172 21q203 0 203 -152q0 -53 -14 -94q-29 -86 -160 -131l-98 -35q-82 -29 -113 -66t-47 -112l-4 -19h336 q15 0 12 -14l-8 -39q-3 -12 -19 -12h-393q-21 0 -18 20z" />
<glyph unicode="&#xb3;" horiz-adv-x="630" d="M178 967l12 34q5 17 17 13q77 -25 153 -25q66 0 104.5 19.5t55.5 64.5q15 47 15 78q0 88 -152 88h-47q-15 0 -12 14l8 41q2 8 4.5 10.5t11.5 2.5h39q102 0 152.5 38t50.5 119q0 76 -115 76q-73 0 -135 -20q-14 -3 -16 6l-9 45q0 11 13 14q81 23 164 23q182 0 182 -133 q0 -71 -35 -129t-109 -74v-4q43 -10 65.5 -39.5t22.5 -69.5q0 -83 -34 -147q-47 -92 -213 -92q-101 0 -183 28q-16 5 -10 19z" />
<glyph unicode="&#xb4;" horiz-adv-x="579" d="M190 1270q-5 16 11 22l401 172q23 9 33 -12l22 -49q16 -34 -26 -47l-398 -144q-16 -5 -22 7z" />
<glyph unicode="&#xb6;" horiz-adv-x="1122" d="M170 999q0 189 133.5 308.5t345.5 119.5h533q15 0 20 -5.5t2 -18.5l-10 -45q-3 -12 -8.5 -15.5t-20.5 -3.5h-157l-306 -1566q-5 -21 -26 -21h-55q-22 0 -17 21l305 1566h-211l-305 -1566q-5 -21 -26 -21h-54q-13 0 -17 4.5t-1 16.5l180 923q-135 8 -220 87t-85 216z" />
<glyph unicode="&#xb7;" horiz-adv-x="387" d="M86 545q0 14 12 82q12 67 82 67h23q61 0 61 -41q0 -13 -14 -82q-8 -35 -26 -51t-58 -16h-21q-59 0 -59 41z" />
<glyph unicode="&#xb8;" horiz-adv-x="471" d="M-145 -418l12 39q6 14 20 8q70 -26 142 -26q76 0 111.5 28.5t35.5 104.5q0 59 -70 59q-44 0 -106 -12q-17 -3 -25 8l-12 16q-8 11 0 27l78 152q6 12 22 12h41q29 0 13 -25l-60 -116q41 12 90 12q55 0 86 -32t31 -91q0 -102 -54 -157.5t-190 -55.5q-77 0 -153 27 q-19 5 -12 22z" />
<glyph unicode="&#xb9;" horiz-adv-x="630" d="M141 944l6 41q2 12 15 12h170l100 533h-8l-176 -103q-14 -8 -21 3l-24 38q-9 12 4 19l186 106q23 13 51 13h66q13 0 17 -3.5t3 -15.5l-114 -590h174q8 0 10.5 -2.5t1.5 -9.5l-6 -41q-2 -12 -14 -12h-428q-8 0 -11 2.5t-2 9.5z" />
<glyph unicode="&#xba;" horiz-adv-x="645" d="M117 776q0 40 26 189q27 147 91 203.5t190 56.5q199 0 199 -166q0 -69 -27 -189q-32 -146 -95 -203t-186 -57q-198 0 -198 166zM199 782q0 -53 30.5 -77.5t94.5 -24.5q87 0 128.5 45.5t65.5 159.5q23 108 23 159q0 111 -125 111q-88 0 -130 -43.5t-65 -161.5 q-22 -116 -22 -168z" />
<glyph unicode="&#xbb;" horiz-adv-x="919" d="M53 233q-10 14 4 25l281 227l-184 215q-10 14 4 25l28 25q14 11 25 0l227 -226q17 -17 15 -32l-4 -25q-6 -27 -23 -39l-320 -229q-15 -12 -26 2zM416 233q-10 14 4 25l280 227l-184 215q-10 14 4 25l29 25q13 11 24 0l228 -226q17 -17 14 -32l-4 -25q-6 -27 -23 -39 l-319 -229q-15 -12 -27 2z" />
<glyph unicode="&#xbc;" horiz-adv-x="1527" d="M111 662l6 40q3 13 14 13h170l100 532h-8l-176 -102q-13 -8 -20 2l-25 39q-9 12 4 18l186 107q22 12 52 12h65q13 0 17.5 -3.5t3.5 -14.5l-115 -590h174q15 0 12 -13l-6 -40q-3 -13 -14 -13h-428q-15 0 -12 13zM281 2l991 1331q8 10 22 10h56q21 0 8 -20l-991 -1331 q-7 -10 -23 -10h-55q-21 0 -8 20zM883 195l6 30q4 16 24 39l322 377q13 15 23 19t30 4h74q26 0 20 -23l-79 -399h77q8 0 11 -2.5t2 -8.5l-11 -45q-2 -10 -14 -10h-78l-33 -164q-2 -12 -16 -12h-55q-14 0 -10 14l32 162h-309q-19 0 -16 19zM981 242h240l69 348h-10z" />
<glyph unicode="&#xbd;" horiz-adv-x="1519" d="M102 662l7 40q3 13 14 13h170l100 532h-8l-176 -102q-14 -8 -21 2l-24 39q-9 12 4 18l186 107q22 12 52 12h65q13 0 17.5 -3.5t3.5 -14.5l-115 -590h174q15 0 12 -13l-6 -40q-3 -13 -14 -13h-428q-16 0 -13 13zM272 2l992 1331q8 10 22 10h55q22 0 9 -20l-992 -1331 q-8 -10 -22 -10h-55q-22 0 -9 20zM887 20l8 43q19 109 65 168t144 95l98 34q66 24 93.5 58.5t27.5 97.5q0 45 -30.5 65.5t-102.5 20.5q-67 0 -137 -18q-20 -5 -23 12l-6 37q-3 15 14 20q82 21 172 21q203 0 203 -152q0 -53 -14 -94q-29 -86 -160 -131l-98 -35 q-82 -29 -113 -66t-47 -112l-4 -18h336q15 0 12 -15l-8 -39q-3 -12 -19 -12h-393q-21 0 -18 20z" />
<glyph unicode="&#xbe;" horiz-adv-x="1544" d="M158 702l12 35q5 17 16 13q77 -25 154 -25q66 0 104.5 19.5t55.5 64.5q14 44 14 78q0 88 -152 88h-47q-15 0 -12 14l8 41q2 12 17 12h39q102 0 152 38.5t50 119.5q0 76 -114 76q-71 0 -136 -21q-13 -3 -16 7l-8 45q0 12 12 14q77 22 164 22q182 0 182 -133 q0 -71 -34.5 -128.5t-108.5 -73.5v-4q43 -10 65.5 -39.5t22.5 -69.5q0 -82 -35 -147q-48 -93 -213 -93q-97 0 -182 29q-15 5 -10 18zM252 2l991 1331q7 10 23 10h55q21 0 8 -20l-991 -1331q-8 -10 -23 -10h-55q-21 0 -8 20zM854 195l6 30q4 15 25 39l321 377q13 15 23 19 t31 4h73q27 0 21 -23l-80 -399h78q15 0 12 -11l-10 -45q-2 -10 -15 -10h-77l-33 -164q-2 -12 -17 -12h-55q-13 0 -10 14l33 162h-310q-19 0 -16 19zM952 242h240l70 348h-11z" />
<glyph unicode="&#xbf;" horiz-adv-x="811" d="M-66 -84q0 136 65.5 221t207.5 158l80 43q114 61 164.5 142t72.5 231q2 12 7 16t20 4h35q23 0 20 -20q-28 -181 -86 -276.5t-182 -162.5l-82 -45q-120 -64 -172.5 -130.5t-52.5 -168.5q0 -95 59.5 -139.5t188.5 -44.5q125 0 290 51q21 5 27 -12l10 -39q5 -21 -16 -29 q-157 -55 -314 -55q-342 0 -342 256zM512 877q0 17 12 73q9 40 27 56t55 16h17q53 0 53 -45q0 -16 -10 -72q-14 -74 -80 -74h-19q-55 0 -55 46z" />
<glyph unicode="&#xc0;" horiz-adv-x="1130" d="M-18 23q349 771 626 1269q17 33 58 33h55q39 0 47 -37q42 -233 82 -579.5t63 -683.5q3 -25 -22 -25h-45q-27 0 -27 25q-11 178 -31 415h-520l-190 -417q-10 -23 -35 -23h-47q-26 0 -14 23zM307 522h473q-42 429 -88 721h-22q-174 -326 -363 -721zM348 1616l23 49 q10 20 32 12l402 -172q15 -6 10 -22l-20 -51q-6 -13 -23 -7l-397 144q-43 14 -27 47z" />
<glyph unicode="&#xc1;" horiz-adv-x="1130" d="M-18 23q349 771 626 1269q17 33 58 33h55q39 0 47 -37q42 -233 82 -579.5t63 -683.5q3 -25 -22 -25h-45q-27 0 -27 25q-11 178 -31 415h-520l-190 -417q-10 -23 -35 -23h-47q-26 0 -14 23zM307 522h473q-42 429 -88 721h-22q-174 -326 -363 -721zM551 1483q-5 16 10 22 l402 172q22 8 32 -12l23 -49q16 -33 -27 -47l-397 -144q-17 -6 -23 7z" />
<glyph unicode="&#xc2;" horiz-adv-x="1130" d="M-18 23q349 771 626 1269q17 33 58 33h55q39 0 47 -37q42 -233 82 -579.5t63 -683.5q3 -25 -22 -25h-45q-27 0 -27 25q-11 178 -31 415h-520l-190 -417q-10 -23 -35 -23h-47q-26 0 -14 23zM307 522h473q-42 429 -88 721h-22q-174 -326 -363 -721zM426 1475q0 11 10 18 l254 227q21 21 43 21h39q23 0 39 -21l190 -239q7 -11 7 -15q0 -8 -13 -18l-34 -27q-9 -6 -17 -6q-9 0 -18 12l-172 207h-13l-237 -207q-13 -10 -21 -10q-6 0 -14 8l-35 35q-8 5 -8 15z" />
<glyph unicode="&#xc3;" horiz-adv-x="1130" d="M-18 23q349 771 626 1269q17 33 58 33h55q39 0 47 -37q42 -233 82 -579.5t63 -683.5q3 -25 -22 -25h-45q-27 0 -27 25q-11 178 -31 415h-520l-190 -417q-10 -23 -35 -23h-47q-26 0 -14 23zM307 522h473q-42 429 -88 721h-22q-174 -326 -363 -721zM397 1522 q97 155 219 155q64 0 121 -49l43 -37q41 -35 76 -35q59 0 143 109q13 15 29 2l33 -27q16 -13 2 -30q-55 -76 -106 -115t-109 -39q-66 0 -123 49l-43 37q-26 22 -42 31.5t-36 9.5q-34 0 -65.5 -24.5t-69.5 -79.5q-14 -20 -31 -9l-37 27q-13 11 -4 25z" />
<glyph unicode="&#xc4;" horiz-adv-x="1130" d="M-18 23q349 771 626 1269q17 33 58 33h55q39 0 47 -37q42 -233 82 -579.5t63 -683.5q3 -25 -22 -25h-45q-27 0 -27 25q-11 178 -31 415h-520l-190 -417q-10 -23 -35 -23h-47q-26 0 -14 23zM307 522h473q-42 429 -88 721h-22q-174 -326 -363 -721zM473 1524q0 15 10 67 q15 74 88 74h31q62 0 62 -51q0 -16 -11 -66q-9 -39 -29.5 -55t-62.5 -16h-24q-64 0 -64 47zM803 1524q0 15 10 67q15 74 88 74h31q61 0 61 -51q0 -21 -10 -66q-9 -39 -29.5 -55t-62.5 -16h-25q-63 0 -63 47z" />
<glyph unicode="&#xc5;" horiz-adv-x="1130" d="M-18 23q349 771 626 1269q17 33 58 33h55q39 0 47 -37q42 -233 82 -579.5t63 -683.5q3 -25 -22 -25h-45q-27 0 -27 25q-11 178 -31 415h-520l-190 -417q-10 -23 -35 -23h-47q-26 0 -14 23zM307 522h473q-42 429 -88 721h-22q-174 -326 -363 -721zM547 1532q0 93 58.5 150 t148.5 57q77 0 120.5 -42.5t43.5 -109.5q0 -99 -60.5 -156t-142.5 -57q-76 0 -122 43.5t-46 114.5zM627 1544q0 -42 25 -66t69 -24q51 0 84 32t33 85q0 41 -26 65.5t-69 24.5q-50 0 -83 -32.5t-33 -84.5z" />
<glyph unicode="&#xc6;" horiz-adv-x="1601" d="M-39 23q490 758 860 1259q21 27 38.5 35t49.5 8h684q13 0 17.5 -4.5t1.5 -15.5l-8 -43q-3 -12 -8 -15.5t-17 -3.5h-578l-98 -516h524q13 0 17.5 -4.5t1.5 -15.5l-10 -45q-5 -19 -25 -19h-526l-64 -352q-12 -73 -12 -121q0 -86 121 -86h454q22 0 19 -21l-8 -43 q-3 -12 -8 -16t-17 -4h-455q-101 0 -150.5 39t-49.5 121q0 48 16 149l23 131h-420l-271 -417q-7 -10 -9.5 -13t-10 -6.5t-18.5 -3.5h-56q-22 0 -8 23zM389 522h379l141 723h-16q-209 -285 -504 -723z" />
<glyph unicode="&#xc7;" horiz-adv-x="1007" d="M86 315q0 103 70 484q29 159 77 266.5t116 168t147 85t186 24.5q86 0 170.5 -24.5t146.5 -63.5q21 -13 11 -32l-19 -31q-12 -21 -35 -8q-131 76 -276 76q-72 0 -125.5 -13t-103 -46.5t-86 -91t-66.5 -147t-53 -214.5q-58 -320 -58 -418q0 -144 67 -204t234 -60 q152 0 302 61q18 8 24 -12l8 -37q7 -23 -8 -29q-151 -61 -309 -67l-4 -9l-60 -116q40 12 90 12q55 0 86 -32t31 -91q0 -102 -54 -157.5t-189 -55.5q-78 0 -154 27q-19 5 -12 22l12 39q6 14 20 8q70 -26 142 -26q76 0 111.5 28.5t35.5 104.5q0 59 -69 59q-45 0 -107 -12 q-17 -3 -25 8l-12 16q-8 11 0 27l76 150q-180 9 -259 86.5t-79 244.5z" />
<glyph unicode="&#xc8;" horiz-adv-x="954" d="M68 174q0 44 16 135q77 425 162 795q20 85 46.5 130t79 68t142.5 23h432q13 0 17.5 -4.5t1.5 -15.5l-9 -43q-3 -12 -7.5 -15.5t-16.5 -3.5h-430q-74 0 -108 -31t-54 -120q-30 -128 -80 -365h520q13 0 17.5 -4.5t1.5 -15.5l-11 -45q-5 -19 -24 -19h-522q-29 -144 -64 -352 q-12 -76 -12 -119q0 -46 28 -67t89 -21h454q22 0 19 -21l-8 -43q-3 -12 -8 -16t-17 -4h-459q-104 0 -150 44t-46 130zM389 1616l23 49q10 20 32 12l402 -172q15 -6 10 -22l-20 -51q-6 -13 -23 -7l-397 144q-43 14 -27 47z" />
<glyph unicode="&#xc9;" horiz-adv-x="954" d="M68 174q0 44 16 135q77 425 162 795q20 85 46.5 130t79 68t142.5 23h432q13 0 17.5 -4.5t1.5 -15.5l-9 -43q-3 -12 -7.5 -15.5t-16.5 -3.5h-430q-74 0 -108 -31t-54 -120q-30 -128 -80 -365h520q13 0 17.5 -4.5t1.5 -15.5l-11 -45q-5 -19 -24 -19h-522q-29 -144 -64 -352 q-12 -76 -12 -119q0 -46 28 -67t89 -21h454q22 0 19 -21l-8 -43q-3 -12 -8 -16t-17 -4h-459q-104 0 -150 44t-46 130zM479 1483q-5 16 10 22l402 172q23 9 33 -12l22 -49q16 -34 -26 -47l-398 -144q-16 -5 -22 7z" />
<glyph unicode="&#xca;" horiz-adv-x="954" d="M68 174q0 44 16 135q77 425 162 795q20 85 46.5 130t79 68t142.5 23h432q13 0 17.5 -4.5t1.5 -15.5l-9 -43q-3 -12 -7.5 -15.5t-16.5 -3.5h-430q-74 0 -108 -31t-54 -120q-30 -128 -80 -365h520q13 0 17.5 -4.5t1.5 -15.5l-11 -45q-5 -19 -24 -19h-522q-29 -144 -64 -352 q-12 -76 -12 -119q0 -46 28 -67t89 -21h454q22 0 19 -21l-8 -43q-3 -12 -8 -16t-17 -4h-459q-104 0 -150 44t-46 130zM387 1475q0 11 10 18l254 227q21 21 43 21h39q23 0 39 -21l191 -239q6 -9 6 -15q0 -8 -13 -18l-34 -27q-9 -6 -17 -6q-9 0 -18 12l-172 207h-13l-237 -207 q-13 -10 -21 -10q-6 0 -14 8l-35 35q-8 5 -8 15z" />
<glyph unicode="&#xcb;" horiz-adv-x="954" d="M68 174q0 44 16 135q77 425 162 795q20 85 46.5 130t79 68t142.5 23h432q13 0 17.5 -4.5t1.5 -15.5l-9 -43q-3 -12 -7.5 -15.5t-16.5 -3.5h-430q-74 0 -108 -31t-54 -120q-30 -128 -80 -365h520q13 0 17.5 -4.5t1.5 -15.5l-11 -45q-5 -19 -24 -19h-522q-29 -144 -64 -352 q-12 -76 -12 -119q0 -46 28 -67t89 -21h454q22 0 19 -21l-8 -43q-3 -12 -8 -16t-17 -4h-459q-104 0 -150 44t-46 130zM449 1524q0 15 10 67q15 74 88 74h31q61 0 61 -51q0 -21 -10 -66q-9 -39 -29.5 -55t-62.5 -16h-25q-63 0 -63 47zM778 1524q0 15 10 67q15 74 89 74h30 q62 0 62 -51q0 -16 -11 -66q-9 -39 -29.5 -55t-62.5 -16h-24q-64 0 -64 47z" />
<glyph unicode="&#xcc;" horiz-adv-x="413" d="M33 1616l22 49q10 21 33 12l401 -172q16 -6 11 -22l-21 -51q-6 -12 -22 -7l-398 144q-42 13 -26 47zM35 18l250 1289q3 18 22 18h53q11 0 15.5 -4.5t3.5 -13.5l-250 -1289q-3 -18 -23 -18h-53q-21 0 -18 18z" />
<glyph unicode="&#xcd;" horiz-adv-x="413" d="M35 18l250 1289q3 18 22 18h53q11 0 15.5 -4.5t3.5 -13.5l-250 -1289q-3 -18 -23 -18h-53q-21 0 -18 18zM203 1483q-5 16 10 22l401 172q23 9 33 -12l23 -49q16 -33 -27 -47l-397 -144q-17 -6 -23 7z" />
<glyph unicode="&#xce;" horiz-adv-x="413" d="M35 18l250 1289q3 18 22 18h53q11 0 15.5 -4.5t3.5 -13.5l-250 -1289q-3 -18 -23 -18h-53q-21 0 -18 18zM72 1475q0 11 10 18l254 227q21 21 43 21h39q23 0 39 -21l190 -239q6 -9 6 -15q0 -9 -12 -18l-35 -27q-9 -6 -16 -6q-10 0 -19 12l-172 207h-12l-237 -207 q-13 -10 -21 -10q-6 0 -14 8l-35 35q-8 5 -8 15z" />
<glyph unicode="&#xcf;" horiz-adv-x="413" d="M35 18l250 1289q3 18 22 18h53q11 0 15.5 -4.5t3.5 -13.5l-250 -1289q-3 -18 -23 -18h-53q-21 0 -18 18zM119 1524q0 15 10 67q15 74 88 74h31q61 0 61 -51q0 -21 -10 -66q-9 -39 -29.5 -55t-62.5 -16h-25q-63 0 -63 47zM449 1524q0 15 10 67q15 74 88 74h31q61 0 61 -51 q0 -21 -10 -66q-9 -39 -29.5 -55t-62.5 -16h-25q-63 0 -63 47z" />
<glyph unicode="&#xd0;" horiz-adv-x="1173" d="M23 659l8 52q2 12 18 12h139l109 549q5 21 13.5 30.5t29.5 12.5q117 20 258 20q121 0 207 -19t151.5 -64.5t98 -126t32.5 -199.5q0 -147 -53 -365q-34 -142 -89 -243.5t-120.5 -162.5t-158.5 -96t-185.5 -47t-218.5 -12h-170q-25 0 -34 8t-5 29l119 608h-133q-10 0 -14 3 t-2 11zM160 104q-6 -22 14 -22h123q99 0 176 10.5t142.5 34t114.5 61t89 93.5t69 128.5t52 168.5q51 212 51 342q0 188 -92 260.5t-307 72.5q-109 0 -174 -10q-19 -3 -28 -11t-13 -30l-96 -479h327q11 0 14.5 -3.5t2.5 -10.5l-9 -52q-2 -12 -18 -12h-332z" />
<glyph unicode="&#xd1;" horiz-adv-x="1183" d="M27 23l239 1241q6 35 21.5 48t52.5 13h37q35 0 52 -13.5t28 -49.5l360 -1178h14l238 1221q5 20 25 20h49q19 0 14 -22l-239 -1242q-6 -35 -21.5 -48t-52.5 -13h-37q-35 0 -52 13.5t-28 49.5l-360 1178h-15l-237 -1221q-5 -20 -25 -20h-49q-20 0 -14 23zM430 1522 q97 155 219 155q64 0 121 -49l43 -37q41 -35 76 -35q59 0 143 109q13 15 29 2l33 -27q16 -13 2 -30q-55 -76 -106 -115t-109 -39q-66 0 -123 49l-43 37q-26 22 -42 31.5t-36 9.5q-34 0 -65.5 -24.5t-69.5 -79.5q-14 -20 -31 -9l-37 27q-13 11 -4 25z" />
<glyph unicode="&#xd2;" horiz-adv-x="1161" d="M82 334q0 148 82 520q56 258 179.5 373.5t356.5 115.5q185 0 280 -83t95 -273q0 -178 -84 -516q-66 -265 -184.5 -377t-335.5 -112q-193 0 -291 81.5t-98 270.5zM180 348q0 -146 67 -214t226 -68q175 0 267.5 92t156.5 334q35 132 57.5 268t22.5 209q0 155 -66.5 223 t-218.5 68q-182 0 -280.5 -97t-153.5 -332q-78 -335 -78 -483zM461 1616l22 49q10 21 33 12l402 -172q15 -6 10 -22l-21 -51q-6 -12 -22 -7l-398 144q-42 13 -26 47z" />
<glyph unicode="&#xd3;" horiz-adv-x="1161" d="M82 334q0 148 82 520q56 258 179.5 373.5t356.5 115.5q185 0 280 -83t95 -273q0 -178 -84 -516q-66 -265 -184.5 -377t-335.5 -112q-193 0 -291 81.5t-98 270.5zM180 348q0 -146 67 -214t226 -68q175 0 267.5 92t156.5 334q35 132 57.5 268t22.5 209q0 155 -66.5 223 t-218.5 68q-182 0 -280.5 -97t-153.5 -332q-78 -335 -78 -483zM551 1483q-5 16 10 22l402 172q22 8 32 -12l23 -49q16 -33 -27 -47l-397 -144q-17 -6 -23 7z" />
<glyph unicode="&#xd4;" horiz-adv-x="1161" d="M82 334q0 148 82 520q56 258 179.5 373.5t356.5 115.5q185 0 280 -83t95 -273q0 -178 -84 -516q-66 -265 -184.5 -377t-335.5 -112q-193 0 -291 81.5t-98 270.5zM180 348q0 -146 67 -214t226 -68q175 0 267.5 92t156.5 334q35 132 57.5 268t22.5 209q0 155 -66.5 223 t-218.5 68q-182 0 -280.5 -97t-153.5 -332q-78 -335 -78 -483zM428 1475q0 11 10 18l254 227q21 21 43 21h39q23 0 39 -21l191 -239q6 -9 6 -15q0 -8 -13 -18l-34 -27q-9 -6 -17 -6q-9 0 -18 12l-172 207h-13l-237 -207q-13 -10 -21 -10q-6 0 -14 8l-35 35q-8 5 -8 15z" />
<glyph unicode="&#xd5;" horiz-adv-x="1161" d="M82 334q0 148 82 520q56 258 179.5 373.5t356.5 115.5q185 0 280 -83t95 -273q0 -178 -84 -516q-66 -265 -184.5 -377t-335.5 -112q-193 0 -291 81.5t-98 270.5zM180 348q0 -146 67 -214t226 -68q175 0 267.5 92t156.5 334q35 132 57.5 268t22.5 209q0 155 -66.5 223 t-218.5 68q-182 0 -280.5 -97t-153.5 -332q-78 -335 -78 -483zM418 1522q97 155 219 155q64 0 121 -49l43 -37q41 -35 76 -35q59 0 143 109q13 15 29 2l32 -27q16 -13 2 -30q-55 -76 -106 -115t-109 -39q-66 0 -123 49l-43 37q-26 23 -41.5 32t-35.5 9q-34 0 -66 -24.5 t-70 -79.5q-14 -20 -30 -9l-37 27q-13 11 -4 25z" />
<glyph unicode="&#xd6;" horiz-adv-x="1161" d="M82 334q0 148 82 520q56 258 179.5 373.5t356.5 115.5q185 0 280 -83t95 -273q0 -178 -84 -516q-66 -265 -184.5 -377t-335.5 -112q-193 0 -291 81.5t-98 270.5zM180 348q0 -146 67 -214t226 -68q175 0 267.5 92t156.5 334q35 132 57.5 268t22.5 209q0 155 -66.5 223 t-218.5 68q-182 0 -280.5 -97t-153.5 -332q-78 -335 -78 -483zM489 1524q0 10 11 67q15 74 88 74h30q62 0 62 -51q0 -21 -10 -66q-9 -39 -29.5 -55t-62.5 -16h-25q-64 0 -64 47zM819 1524q0 15 10 67q15 74 89 74h30q62 0 62 -51q0 -16 -11 -66q-9 -39 -29.5 -55t-62.5 -16 h-24q-64 0 -64 47z" />
<glyph unicode="&#xd7;" horiz-adv-x="1048" d="M123 242q-10 13 4 24l311 260l-205 254q-10 12 3 25l49 41q13 10 22 -2l207 -254l315 264q11 12 25 -2l37 -43q12 -12 -4 -25l-316 -266l205 -256q10 -12 -2 -24l-49 -41q-14 -10 -23 2l-206 258l-314 -262q-13 -13 -24 2z" />
<glyph unicode="&#xd8;" horiz-adv-x="1159" d="M68 -125l110 188q-94 85 -94 275q0 156 78 516q56 258 179.5 373.5t356.5 115.5q128 0 215 -40l113 190q9 17 27 8l43 -24q15 -9 6 -25l-119 -199q90 -87 90 -266q0 -178 -84 -516q-66 -265 -184.5 -377t-335.5 -112q-139 0 -217 34l-109 -182q-8 -17 -26 -8l-43 24 q-15 9 -6 25zM178 348q0 -136 51 -198l635 1069q-68 41 -174 41q-182 0 -280.5 -97t-153.5 -332q-78 -335 -78 -483zM299 96q64 -30 172 -30q175 0 267.5 92t156.5 334q35 132 57.5 268t22.5 209q0 119 -47 190z" />
<glyph unicode="&#xd9;" horiz-adv-x="1140" d="M78 281q0 70 37 260l147 766q3 18 23 18h55q21 0 18 -18l-170 -869q-16 -88 -16 -153q0 -219 289 -219q94 0 155.5 14.5t112.5 55.5t83 113.5t54 188.5l166 869q3 18 23 18h55q21 0 18 -18l-170 -881q-49 -255 -156.5 -349.5t-346.5 -94.5q-377 0 -377 299zM432 1616 l23 49q10 20 32 12l402 -172q15 -6 10 -22l-20 -51q-6 -13 -23 -7l-397 144q-43 14 -27 47z" />
<glyph unicode="&#xda;" horiz-adv-x="1140" d="M78 281q0 70 37 260l147 766q3 18 23 18h55q21 0 18 -18l-170 -869q-16 -88 -16 -153q0 -219 289 -219q94 0 155.5 14.5t112.5 55.5t83 113.5t54 188.5l166 869q3 18 23 18h55q21 0 18 -18l-170 -881q-49 -255 -156.5 -349.5t-346.5 -94.5q-377 0 -377 299zM543 1483 q-5 16 10 22l401 172q23 9 33 -12l23 -49q16 -33 -27 -47l-397 -144q-17 -6 -23 7z" />
<glyph unicode="&#xdb;" horiz-adv-x="1140" d="M78 281q0 70 37 260l147 766q3 18 23 18h55q21 0 18 -18l-170 -869q-16 -88 -16 -153q0 -219 289 -219q94 0 155.5 14.5t112.5 55.5t83 113.5t54 188.5l166 869q3 18 23 18h55q21 0 18 -18l-170 -881q-49 -255 -156.5 -349.5t-346.5 -94.5q-377 0 -377 299zM430 1475 q0 11 10 18l254 227q21 21 43 21h39q23 0 39 -21l191 -239q6 -9 6 -15q0 -8 -13 -18l-34 -27q-9 -6 -17 -6q-9 0 -18 12l-172 207h-13l-237 -207q-13 -10 -21 -10q-6 0 -14 8l-35 35q-8 5 -8 15z" />
<glyph unicode="&#xdc;" horiz-adv-x="1140" d="M78 281q0 70 37 260l147 766q3 18 23 18h55q21 0 18 -18l-170 -869q-16 -88 -16 -153q0 -219 289 -219q94 0 155.5 14.5t112.5 55.5t83 113.5t54 188.5l166 869q3 18 23 18h55q21 0 18 -18l-170 -881q-49 -255 -156.5 -349.5t-346.5 -94.5q-377 0 -377 299zM463 1524 q0 15 10 67q15 74 88 74h31q61 0 61 -51q0 -21 -10 -66q-9 -39 -29.5 -55t-62.5 -16h-25q-63 0 -63 47zM793 1524q0 15 10 67q15 74 88 74h31q61 0 61 -51q0 -21 -10 -66q-9 -39 -29.5 -55t-62.5 -16h-25q-63 0 -63 47z" />
<glyph unicode="&#xdd;" horiz-adv-x="890" d="M145 1309q0 16 19 16h55q12 0 17 -3t6 -13q32 -382 166 -740h16q138 182 246.5 356.5t214.5 387.5q6 12 22 12h60q20 0 14 -16q-113 -228 -236.5 -425t-300.5 -425l-86 -441q-3 -18 -22 -18h-55q-11 0 -15.5 4t-3.5 14l88 447q-164 420 -205 844zM424 1483q-5 16 10 22 l402 172q22 8 32 -12l23 -49q16 -33 -27 -47l-397 -144q-17 -6 -23 7z" />
<glyph unicode="&#xde;" horiz-adv-x="989" d="M27 18l256 1315q3 19 22 19h53q22 0 19 -19l-43 -207q86 13 172 13q195 0 295 -66t100 -229q0 -67 -18 -158q-40 -193 -171.5 -280t-355.5 -87h-178l-57 -301q-3 -18 -23 -18h-53q-21 0 -18 18zM195 403h163q194 0 291.5 67.5t134.5 223.5q17 69 17 131q0 128 -71 179 t-234 51q-99 0 -181 -19z" />
<glyph unicode="&#xdf;" horiz-adv-x="1007" d="M-20 -113q70 195 112 408l139 741q38 202 138.5 285.5t269.5 83.5q143 0 225 -65.5t82 -204.5q0 -152 -70.5 -256.5t-205.5 -137.5v-6q101 -13 161 -75t60 -177q0 -118 -37 -227q-46 -140 -140 -207t-253 -67q-121 0 -201 24q-18 4 -12 25l12 41q5 21 25 14 q94 -25 174 -25q128 0 203.5 56t109.5 174q27 97 27 188q0 108 -67 161.5t-214 53.5h-49q-25 0 -20 21l8 41q3 18 24 18h21q175 0 265.5 97t90.5 259q0 106 -58.5 150.5t-164.5 44.5q-138 0 -211 -71t-100 -216l-142 -737q-46 -243 -119 -416q-6 -16 -24 -16h-47 q-19 0 -12 18z" />
<glyph unicode="&#xe0;" horiz-adv-x="933" d="M33 174q0 92 39 211q29 91 98 137q85 58 264 58h98q86 0 162 -13l15 74q22 110 22 162q0 77 -49.5 108t-165.5 31q-128 0 -262 -43q-22 -6 -25 10l-6 45q-3 18 15 23q150 45 297 45q281 0 286 -199q0 -53 -28 -209l-113 -598q-3 -16 -18 -16h-48q-19 0 -16 20l12 89h-4 q-91 -127 -299 -127h-22q-135 0 -193.5 47.5t-58.5 144.5zM123 186q0 -66 42 -95.5t136 -29.5h18q137 0 222 68.5t108 194.5l31 165q-83 11 -156 11h-114q-131 0 -191 -45q-40 -30 -63 -97q-33 -105 -33 -172zM307 1403l23 49q10 20 32 12l402 -172q15 -6 10 -22l-20 -51 q-6 -13 -23 -7l-397 144q-43 14 -27 47z" />
<glyph unicode="&#xe1;" horiz-adv-x="933" d="M33 174q0 92 39 211q29 91 98 137q85 58 264 58h98q86 0 162 -13l15 74q22 110 22 162q0 77 -49.5 108t-165.5 31q-128 0 -262 -43q-22 -6 -25 10l-6 45q-3 18 15 23q150 45 297 45q281 0 286 -199q0 -53 -28 -209l-113 -598q-3 -16 -18 -16h-48q-19 0 -16 20l12 89h-4 q-91 -127 -299 -127h-22q-135 0 -193.5 47.5t-58.5 144.5zM123 186q0 -66 42 -95.5t136 -29.5h18q137 0 222 68.5t108 194.5l31 165q-83 11 -156 11h-114q-131 0 -191 -45q-40 -30 -63 -97q-33 -105 -33 -172zM399 1270q-5 16 11 22l401 172q23 9 33 -12l22 -49 q16 -34 -26 -47l-398 -144q-16 -5 -22 7z" />
<glyph unicode="&#xe2;" horiz-adv-x="933" d="M33 174q0 92 39 211q29 91 98 137q85 58 264 58h98q86 0 162 -13l15 74q22 110 22 162q0 77 -49.5 108t-165.5 31q-128 0 -262 -43q-22 -6 -25 10l-6 45q-3 18 15 23q150 45 297 45q281 0 286 -199q0 -53 -28 -209l-113 -598q-3 -16 -18 -16h-48q-19 0 -16 20l12 89h-4 q-91 -127 -299 -127h-22q-135 0 -193.5 47.5t-58.5 144.5zM123 186q0 -66 42 -95.5t136 -29.5h18q137 0 222 68.5t108 194.5l31 165q-83 11 -156 11h-114q-131 0 -191 -45q-40 -30 -63 -97q-33 -105 -33 -172zM317 1245q-19 15 2 33l254 227q21 21 43 21h39q23 0 39 -21 l191 -239q13 -19 -6 -33l-35 -27q-20 -12 -35 6l-172 207h-12l-238 -207q-20 -17 -35 -2z" />
<glyph unicode="&#xe3;" horiz-adv-x="933" d="M33 174q0 92 39 211q29 91 98 137q85 58 264 58h98q86 0 162 -13l15 74q22 110 22 162q0 77 -49.5 108t-165.5 31q-128 0 -262 -43q-22 -6 -25 10l-6 45q-3 18 15 23q150 45 297 45q281 0 286 -199q0 -53 -28 -209l-113 -598q-3 -16 -18 -16h-48q-19 0 -16 20l12 89h-4 q-91 -127 -299 -127h-22q-135 0 -193.5 47.5t-58.5 144.5zM123 186q0 -66 42 -95.5t136 -29.5h18q137 0 222 68.5t108 194.5l31 165q-83 11 -156 11h-114q-131 0 -191 -45q-40 -30 -63 -97q-33 -105 -33 -172zM287 1303q97 155 219 155q64 0 121 -49l43 -37q41 -35 75 -35 q60 0 144 109q13 15 29 2l32 -27q16 -13 2 -30q-55 -76 -106 -115t-109 -39q-66 0 -123 49l-43 37q-26 23 -41.5 32t-35.5 9q-34 0 -66 -24.5t-70 -79.5q-14 -20 -30 -9l-37 27q-13 11 -4 25z" />
<glyph unicode="&#xe4;" horiz-adv-x="933" d="M33 174q0 92 39 211q29 91 98 137q85 58 264 58h98q86 0 162 -13l15 74q22 110 22 162q0 77 -49.5 108t-165.5 31q-128 0 -262 -43q-22 -6 -25 10l-6 45q-3 18 15 23q150 45 297 45q281 0 286 -199q0 -53 -28 -209l-113 -598q-3 -16 -18 -16h-48q-19 0 -16 20l12 89h-4 q-91 -127 -299 -127h-22q-135 0 -193.5 47.5t-58.5 144.5zM123 186q0 -66 42 -95.5t136 -29.5h18q137 0 222 68.5t108 194.5l31 165q-83 11 -156 11h-114q-131 0 -191 -45q-40 -30 -63 -97q-33 -105 -33 -172zM350 1300q0 16 10 68q15 74 89 74h30q62 0 62 -51 q0 -17 -11 -66q-9 -40 -30 -56t-62 -16h-24q-64 0 -64 47zM680 1300q0 16 10 68q15 74 88 74h31q61 0 61 -51q0 -21 -10 -66q-9 -40 -30 -56t-62 -16h-25q-63 0 -63 47z" />
<glyph unicode="&#xe5;" horiz-adv-x="933" d="M33 174q0 92 39 211q29 91 98 137q85 58 264 58h98q86 0 162 -13l15 74q22 110 22 162q0 77 -49.5 108t-165.5 31q-128 0 -262 -43q-22 -6 -25 10l-6 45q-3 18 15 23q150 45 297 45q281 0 286 -199q0 -53 -28 -209l-113 -598q-3 -16 -18 -16h-48q-19 0 -16 20l12 89h-4 q-91 -127 -299 -127h-22q-135 0 -193.5 47.5t-58.5 144.5zM123 186q0 -66 42 -95.5t136 -29.5h18q137 0 222 68.5t108 194.5l31 165q-83 11 -156 11h-114q-131 0 -191 -45q-40 -30 -63 -97q-33 -105 -33 -172zM414 1313q0 93 58.5 150t148.5 57q77 0 120 -42.5t43 -109.5 q0 -99 -60 -156t-142 -57q-76 0 -122 43.5t-46 114.5zM494 1325q0 -42 25 -66t69 -24q51 0 84 32t33 85q0 41 -26 65.5t-69 24.5q-50 0 -83 -32.5t-33 -84.5z" />
<glyph unicode="&#xe6;" horiz-adv-x="1482" d="M33 170q0 118 41 233q34 96 110 136.5t226 40.5h122q86 0 162 -13l11 56q26 152 26 180q0 77 -50.5 108t-166.5 31q-126 0 -260 -43q-22 -6 -25 10l-6 45q-3 18 15 23q150 45 301 45q103 0 171 -26.5t95 -96.5q88 123 305 123q149 0 219 -61.5t70 -184.5q0 -92 -43 -303 q-7 -33 -43 -33h-553q-19 -111 -19 -180q0 -111 54 -155t192 -44q60 0 135 14.5t131 35.5q20 8 23 -11l8 -39q2 -11 -1 -15.5t-13 -8.5q-145 -55 -295 -55q-147 0 -223.5 46t-85.5 130q-22 -53 -57.5 -89t-84 -54.5t-99.5 -25.5t-118 -7h-26q-136 0 -192 45.5t-56 142.5z M123 182q0 -66 40 -93.5t134 -27.5h22q155 0 229.5 60t100.5 203l31 165q-83 11 -158 11h-131q-102 0 -156.5 -29t-76.5 -94q-35 -103 -35 -195zM774 518h473q26 0 31 29q31 148 31 219q0 94 -53 135t-158 41q-137 0 -203.5 -64t-99.5 -245z" />
<glyph unicode="&#xe7;" horiz-adv-x="835" d="M63 250q0 106 60 373q28 129 61 198t90 119q94 82 271 82q146 0 262 -66q19 -11 10 -28l-18 -37q-9 -17 -31 -6q-117 57 -233 57q-128 0 -195 -61q-43 -37 -72 -98.5t-57 -174.5q-55 -226 -55 -350q0 -105 54.5 -151t182.5 -46q51 0 122.5 15.5t125.5 38.5q17 7 23 -11 l8 -38q6 -20 -17 -29q-114 -48 -258 -55l-63 -125q40 12 90 12q55 0 86 -32t31 -91q0 -102 -54 -157.5t-190 -55.5q-78 0 -154 27q-19 5 -12 22l12 39q6 14 21 8q70 -26 141 -26q77 0 112.5 28.5t35.5 104.5q0 59 -70 59q-45 0 -107 -12q-16 -3 -24 8l-12 16q-8 11 0 27 l75 150q-125 11 -188.5 74.5t-63.5 191.5z" />
<glyph unicode="&#xe8;" horiz-adv-x="892" d="M63 250q0 111 62 426q37 186 125 266q93 80 270 80q289 0 289 -246q0 -92 -43 -303q-7 -33 -43 -33h-553q-18 -105 -18 -180q0 -111 54 -155t191 -44q117 0 267 52q19 8 22 -11l8 -41q2 -11 -1 -15.5t-13 -8.5q-145 -55 -295 -55q-179 0 -250.5 67t-71.5 201zM184 518 h473q26 0 31 29q31 148 31 219q0 94 -53 135t-158 41q-137 0 -203.5 -64t-99.5 -245zM266 1403l23 49q10 21 33 12l401 -172q15 -6 10 -22l-20 -51q-6 -13 -23 -7l-397 144q-43 14 -27 47z" />
<glyph unicode="&#xe9;" horiz-adv-x="892" d="M63 250q0 111 62 426q37 186 125 266q93 80 270 80q289 0 289 -246q0 -92 -43 -303q-7 -33 -43 -33h-553q-18 -105 -18 -180q0 -111 54 -155t191 -44q117 0 267 52q19 8 22 -11l8 -41q2 -11 -1 -15.5t-13 -8.5q-145 -55 -295 -55q-179 0 -250.5 67t-71.5 201zM184 518 h473q26 0 31 29q31 148 31 219q0 94 -53 135t-158 41q-137 0 -203.5 -64t-99.5 -245zM385 1270q-5 16 10 22l402 172q22 8 32 -12l23 -49q16 -33 -27 -47l-397 -144q-16 -5 -22 7z" />
<glyph unicode="&#xea;" horiz-adv-x="892" d="M63 250q0 111 62 426q37 186 125 266q93 80 270 80q289 0 289 -246q0 -92 -43 -303q-7 -33 -43 -33h-553q-18 -105 -18 -180q0 -111 54 -155t191 -44q117 0 267 52q19 8 22 -11l8 -41q2 -11 -1 -15.5t-13 -8.5q-145 -55 -295 -55q-179 0 -250.5 67t-71.5 201zM184 518 h473q26 0 31 29q31 148 31 219q0 94 -53 135t-158 41q-137 0 -203.5 -64t-99.5 -245zM272 1243q-19 15 2 33l254 227q21 21 43 21h39q23 0 39 -21l191 -239q13 -19 -6 -33l-35 -27q-20 -12 -35 6l-172 207h-12l-238 -207q-20 -17 -35 -2z" />
<glyph unicode="&#xeb;" horiz-adv-x="892" d="M63 250q0 111 62 426q37 186 125 266q93 80 270 80q289 0 289 -246q0 -92 -43 -303q-7 -33 -43 -33h-553q-18 -105 -18 -180q0 -111 54 -155t191 -44q117 0 267 52q19 8 22 -11l8 -41q2 -11 -1 -15.5t-13 -8.5q-145 -55 -295 -55q-179 0 -250.5 67t-71.5 201zM184 518 h473q26 0 31 29q31 148 31 219q0 94 -53 135t-158 41q-137 0 -203.5 -64t-99.5 -245zM311 1300q0 11 11 68q15 74 88 74h30q62 0 62 -51q0 -21 -10 -66q-9 -39 -30 -55.5t-63 -16.5h-24q-64 0 -64 47zM641 1300q0 16 10 68q15 74 88 74h31q61 0 61 -51q0 -21 -10 -66 q-9 -40 -30 -56t-62 -16h-24q-64 0 -64 47z" />
<glyph unicode="&#xec;" horiz-adv-x="446" d="M0 1403l23 49q10 20 32 12l402 -172q15 -6 10 -22l-21 -51q-6 -12 -22 -7l-397 144q-43 14 -27 47zM68 14l188 975q3 15 18 15h60q15 0 12 -15l-188 -975q-3 -14 -19 -14h-59q-15 0 -12 14z" />
<glyph unicode="&#xed;" horiz-adv-x="446" d="M68 14l188 975q3 15 18 15h60q15 0 12 -15l-188 -975q-3 -14 -19 -14h-59q-15 0 -12 14zM203 1270q-5 16 10 22l401 172q23 9 33 -12l23 -49q16 -33 -27 -47l-397 -144q-17 -6 -23 7z" />
<glyph unicode="&#xee;" horiz-adv-x="446" d="M66 1245q-19 15 2 33l254 227q21 21 43 21h38q23 0 39 -21l191 -239q13 -19 -6 -33l-35 -27q-20 -12 -35 6l-172 207h-12l-238 -207q-20 -17 -35 -2zM68 14l188 975q3 15 18 15h60q15 0 12 -15l-188 -975q-3 -14 -19 -14h-59q-15 0 -12 14z" />
<glyph unicode="&#xef;" horiz-adv-x="446" d="M68 14l188 975q3 15 18 15h60q15 0 12 -15l-188 -975q-3 -14 -19 -14h-59q-15 0 -12 14zM100 1300q0 11 11 68q15 74 88 74h30q62 0 62 -51q0 -21 -10 -66q-9 -39 -30 -55.5t-63 -16.5h-24q-64 0 -64 47zM430 1300q0 16 10 68q15 74 88 74h31q62 0 62 -51q0 -17 -11 -66 q-9 -40 -30 -56t-62 -16h-24q-64 0 -64 47z" />
<glyph unicode="&#xf0;" horiz-adv-x="929" d="M68 238q0 91 45 356q32 186 115.5 269t238.5 83q85 0 154.5 -31.5t101.5 -85.5h4q-28 268 -180 396l-197 -113q-16 -9 -26 8l-19 33q-7 14 12 27l170 96q-65 46 -133 82q-17 8 -6 22l25 35q11 16 26 8q92 -48 162 -104l170 96q18 11 27 -4l18 -31q9 -17 -6 -26l-152 -88 q153 -150 183 -375q14 -87 11 -195t-28 -250q-12 -69 -23 -118t-28 -101.5t-37.5 -87t-50.5 -67t-68.5 -51.5t-90 -30t-115.5 -11q-155 0 -229 68.5t-74 189.5zM158 252q0 -99 49 -146t174 -47q48 0 86 8.5t67 23.5t51.5 41.5t38.5 54.5t30 72t23.5 84.5t20.5 100.5 q21 119 21 174q0 118 -63 183t-185 65q-118 0 -179.5 -61.5t-90.5 -218.5q-43 -237 -43 -334z" />
<glyph unicode="&#xf1;" horiz-adv-x="993" d="M37 16l188 977q3 11 15 11h53q15 0 12 -15l-10 -100h4q96 133 322 133q256 0 256 -219q0 -55 -39 -271l-99 -518q-3 -14 -18 -14h-55q-18 0 -15 16l113 586q24 126 24 180q0 81 -44.5 120.5t-145.5 39.5q-142 0 -232.5 -74t-123.5 -250l-117 -604q-3 -14 -19 -14h-55 q-17 0 -14 16zM315 1303q97 155 220 155q63 0 120 -49l43 -37q41 -35 76 -35q60 0 144 109q12 15 28 2l33 -27q16 -13 2 -30q-55 -76 -106 -115t-109 -39q-66 0 -123 49l-43 37q-26 22 -42 31.5t-36 9.5q-34 0 -65.5 -24.5t-69.5 -79.5q-14 -20 -31 -9l-37 27q-13 11 -4 25z " />
<glyph unicode="&#xf2;" horiz-adv-x="964" d="M63 250q0 109 54 362q49 228 149 319t291 91q150 0 223.5 -66t73.5 -188q0 -159 -53 -377q-55 -226 -150.5 -317.5t-288.5 -91.5q-157 0 -228 66.5t-71 201.5zM156 260q0 -98 49.5 -148.5t171.5 -50.5q150 0 221.5 80.5t118.5 288.5q45 203 45 313q0 104 -50.5 151.5 t-170.5 47.5q-153 0 -223 -79.5t-117 -289.5q-45 -203 -45 -313zM315 1403l23 49q10 21 33 12l401 -172q15 -6 10 -22l-20 -51q-6 -13 -23 -7l-397 144q-43 14 -27 47z" />
<glyph unicode="&#xf3;" horiz-adv-x="964" d="M63 250q0 109 54 362q49 228 149 319t291 91q150 0 223.5 -66t73.5 -188q0 -159 -53 -377q-55 -226 -150.5 -317.5t-288.5 -91.5q-157 0 -228 66.5t-71 201.5zM156 260q0 -98 49.5 -148.5t171.5 -50.5q150 0 221.5 80.5t118.5 288.5q45 203 45 313q0 104 -50.5 151.5 t-170.5 47.5q-153 0 -223 -79.5t-117 -289.5q-45 -203 -45 -313zM422 1270q-5 16 10 22l402 172q22 8 32 -12l23 -49q16 -33 -27 -47l-397 -144q-17 -6 -23 7z" />
<glyph unicode="&#xf4;" horiz-adv-x="964" d="M63 250q0 109 54 362q49 228 149 319t291 91q150 0 223.5 -66t73.5 -188q0 -159 -53 -377q-55 -226 -150.5 -317.5t-288.5 -91.5q-157 0 -228 66.5t-71 201.5zM156 260q0 -98 49.5 -148.5t171.5 -50.5q150 0 221.5 80.5t118.5 288.5q45 203 45 313q0 104 -50.5 151.5 t-170.5 47.5q-153 0 -223 -79.5t-117 -289.5q-45 -203 -45 -313zM322 1245q-19 15 2 33l254 227q21 21 43 21h38q23 0 39 -21l191 -239q13 -19 -6 -33l-35 -27q-20 -12 -35 6l-172 207h-12l-238 -207q-20 -17 -35 -2z" />
<glyph unicode="&#xf5;" horiz-adv-x="964" d="M63 250q0 109 54 362q49 228 149 319t291 91q150 0 223.5 -66t73.5 -188q0 -159 -53 -377q-55 -226 -150.5 -317.5t-288.5 -91.5q-157 0 -228 66.5t-71 201.5zM156 260q0 -98 49.5 -148.5t171.5 -50.5q150 0 221.5 80.5t118.5 288.5q45 203 45 313q0 104 -50.5 151.5 t-170.5 47.5q-153 0 -223 -79.5t-117 -289.5q-45 -203 -45 -313zM285 1303q97 155 219 155q64 0 121 -49l43 -37q41 -35 75 -35q60 0 144 109q12 15 28 2l33 -27q16 -13 2 -30q-55 -76 -106 -115t-109 -39q-66 0 -123 49l-43 37q-26 23 -41.5 32t-35.5 9q-34 0 -66 -24.5 t-70 -79.5q-14 -20 -30 -9l-37 27q-13 11 -4 25z" />
<glyph unicode="&#xf6;" horiz-adv-x="964" d="M63 250q0 109 54 362q49 228 149 319t291 91q150 0 223.5 -66t73.5 -188q0 -159 -53 -377q-55 -226 -150.5 -317.5t-288.5 -91.5q-157 0 -228 66.5t-71 201.5zM156 260q0 -98 49.5 -148.5t171.5 -50.5q150 0 221.5 80.5t118.5 288.5q45 203 45 313q0 104 -50.5 151.5 t-170.5 47.5q-153 0 -223 -79.5t-117 -289.5q-45 -203 -45 -313zM356 1300q0 11 11 68q15 74 88 74h30q62 0 62 -51q0 -21 -10 -66q-9 -39 -30 -55.5t-63 -16.5h-24q-64 0 -64 47zM686 1300q0 16 10 68q15 74 88 74h31q62 0 62 -51q0 -17 -11 -66q-9 -40 -30 -56t-62 -16 h-24q-64 0 -64 47z" />
<glyph unicode="&#xf7;" horiz-adv-x="1048" d="M86 506l12 59q3 15 17 15h800q16 0 13 -15l-13 -59q-3 -14 -16 -14h-801q-15 0 -12 14zM336 129q0 14 12 80q12 67 86 67h29q36 0 50.5 -10.5t14.5 -34.5q0 -15 -12 -79q-6 -36 -24.5 -52t-61.5 -16h-29q-65 0 -65 45zM473 840q0 14 12 80q12 67 86 67h29q36 0 51 -10.5 t15 -34.5q0 -11 -13 -80q-6 -36 -24 -51.5t-62 -15.5h-28q-66 0 -66 45z" />
<glyph unicode="&#xf8;" horiz-adv-x="964" d="M33 -88l94 143q-64 64 -64 195q0 109 54 362q49 228 149 319t291 91q106 0 178 -37l101 152q8 14 22 8l37 -21q13 -8 4 -20l-106 -162q61 -64 61 -174q0 -159 -53 -377q-55 -226 -150.5 -317.5t-288.5 -91.5q-106 0 -178 32l-88 -135q-8 -14 -22 -8l-37 20q-14 8 -4 21z M156 260q0 -73 26 -121l506 772q-54 31 -147 31q-153 0 -223 -79.5t-117 -289.5q-45 -203 -45 -313zM233 90q56 -29 144 -29q150 0 221.5 80.5t118.5 288.5q45 203 45 313q0 70 -25 115z" />
<glyph unicode="&#xf9;" horiz-adv-x="974" d="M74 213q0 50 16 129l123 647q3 15 18 15h58q15 0 12 -15l-123 -637q-16 -78 -16 -133q0 -80 50.5 -119t166.5 -39q80 0 129 12.5t86 43.5q70 59 108 245l121 627q3 15 19 15h57q15 0 12 -15l-125 -645q-23 -113 -54 -183.5t-81 -109.5q-47 -38 -111 -53.5t-173 -15.5 q-150 0 -221.5 57t-71.5 174zM297 1403l22 49q10 21 33 12l402 -172q15 -6 10 -22l-21 -51q-6 -12 -22 -7l-397 144q-43 14 -27 47z" />
<glyph unicode="&#xfa;" horiz-adv-x="974" d="M74 213q0 50 16 129l123 647q3 15 18 15h58q15 0 12 -15l-123 -637q-16 -78 -16 -133q0 -80 50.5 -119t166.5 -39q80 0 129 12.5t86 43.5q70 59 108 245l121 627q3 15 19 15h57q15 0 12 -15l-125 -645q-23 -113 -54 -183.5t-81 -109.5q-47 -38 -111 -53.5t-173 -15.5 q-150 0 -221.5 57t-71.5 174zM432 1270q-5 16 10 22l402 172q23 9 33 -12l22 -49q16 -33 -27 -47l-397 -144q-16 -5 -22 7z" />
<glyph unicode="&#xfb;" horiz-adv-x="974" d="M74 213q0 50 16 129l123 647q3 15 18 15h58q15 0 12 -15l-123 -637q-16 -78 -16 -133q0 -80 50.5 -119t166.5 -39q80 0 129 12.5t86 43.5q70 59 108 245l121 627q3 15 19 15h57q15 0 12 -15l-125 -645q-23 -113 -54 -183.5t-81 -109.5q-47 -38 -111 -53.5t-173 -15.5 q-150 0 -221.5 57t-71.5 174zM309 1245q-19 15 2 33l254 227q21 21 43 21h39q23 0 39 -21l191 -239q13 -19 -7 -33l-34 -27q-20 -12 -35 6l-172 207h-13l-237 -207q-20 -17 -35 -2z" />
<glyph unicode="&#xfc;" horiz-adv-x="974" d="M74 213q0 50 16 129l123 647q3 15 18 15h58q15 0 12 -15l-123 -637q-16 -78 -16 -133q0 -80 50.5 -119t166.5 -39q80 0 129 12.5t86 43.5q70 59 108 245l121 627q3 15 19 15h57q15 0 12 -15l-125 -645q-23 -113 -54 -183.5t-81 -109.5q-47 -38 -111 -53.5t-173 -15.5 q-150 0 -221.5 57t-71.5 174zM346 1300q0 16 10 68q15 74 88 74h31q62 0 62 -51q0 -17 -11 -66q-9 -40 -30 -56t-62 -16h-24q-64 0 -64 47zM676 1300q0 16 10 68q15 74 88 74h31q61 0 61 -51q0 -21 -10 -66q-9 -40 -30 -56t-62 -16h-25q-63 0 -63 47z" />
<glyph unicode="&#xfd;" horiz-adv-x="808" d="M94 987q0 17 17 17h59q16 0 16 -17q16 -490 64 -821q4 -34 22.5 -48t53.5 -14q195 350 415 885q5 15 23 15h59q23 0 15 -19q-120 -288 -265 -582q-165 -331 -393 -741q-9 -16 -26 -10l-45 20q-20 10 -9 29q109 184 183 324q-52 5 -79 31t-36 85q-43 284 -74 846z M342 1270q-5 16 10 22l402 172q22 8 32 -12l23 -49q16 -33 -27 -47l-397 -144q-17 -6 -23 7z" />
<glyph unicode="&#xfe;" horiz-adv-x="1005" d="M-33 -346l328 1712q3 20 18 20h56q17 0 14 -20l-92 -475h4q48 67 122 99t187 32q152 0 222.5 -65t70.5 -191q0 -121 -45 -346q-27 -131 -63.5 -216.5t-89.5 -134.5t-116 -68t-153 -19q-118 0 -183.5 38.5t-94.5 112.5h-7l-90 -481q-3 -14 -18 -14h-55q-18 0 -15 16z M186 293q0 -106 59 -169t193 -63q95 0 154.5 33t101 115t72.5 231q41 189 41 316q0 95 -50.5 140.5t-166.5 45.5q-65 0 -115.5 -13t-97 -44.5t-79 -91t-50.5 -146.5l-51 -254q-11 -64 -11 -100z" />
<glyph unicode="&#xff;" horiz-adv-x="808" d="M94 987q0 17 17 17h59q16 0 16 -17q16 -490 64 -821q4 -34 22.5 -48t53.5 -14q195 350 415 885q5 15 23 15h59q23 0 15 -19q-120 -288 -265 -582q-165 -331 -393 -741q-9 -16 -26 -10l-45 20q-20 10 -9 29q109 184 183 324q-52 5 -79 31t-36 85q-43 284 -74 846z M248 1300q0 16 10 68q15 74 88 74h31q61 0 61 -51q0 -21 -10 -66q-9 -40 -30 -56t-62 -16h-25q-63 0 -63 47zM578 1300q0 16 10 68q15 74 88 74h31q61 0 61 -51q0 -21 -10 -66q-9 -40 -30 -56t-62 -16h-25q-63 0 -63 47z" />
<glyph unicode="&#x152;" horiz-adv-x="1681" d="M80 330q0 63 12.5 153t27.5 162.5t44 208.5q56 257 178.5 373t351.5 116q223 0 303 -155q30 75 83 106t161 31h432q13 0 17.5 -4.5t1.5 -15.5l-9 -43q-3 -12 -7.5 -15.5t-16.5 -3.5h-430q-74 0 -108 -31t-54 -120q-30 -128 -80 -365h520q13 0 17.5 -4.5t1.5 -15.5 l-10 -45q-5 -19 -25 -19h-522q-29 -144 -64 -352q-12 -77 -12 -119q0 -46 28 -67t89 -21h454q22 0 19 -21l-8 -43q-3 -12 -8 -16t-17 -4h-455q-97 0 -144.5 38.5t-43.5 117.5q-40 -78 -135.5 -126t-208.5 -48q-188 0 -285.5 81t-97.5 267zM180 348q0 -146 65 -214t216 -68 q144 0 242 89.5t131 274.5q27 151 100 502q12 58 12 102q-1 62 -25 108t-62.5 70.5t-80.5 36t-86 11.5q-182 0 -280.5 -97t-153.5 -332q-78 -335 -78 -483z" />
<glyph unicode="&#x153;" horiz-adv-x="1533" d="M63 250q0 109 54 362q49 228 149 319t291 91q116 0 183.5 -40t88.5 -126q74 166 332 166q149 0 219 -61.5t70 -184.5q0 -92 -43 -303q-7 -33 -43 -33h-553l-6 -28q-12 -85 -12 -152q0 -111 54 -155t191 -44q60 0 135.5 14.5t131.5 35.5q19 8 22 -11l8 -39q2 -11 -1 -15.5 t-13 -8.5q-145 -55 -295 -55q-148 0 -225 49.5t-82 144.5q-85 -194 -357 -194q-157 0 -228 66.5t-71 201.5zM156 260q0 -98 49.5 -148.5t171.5 -50.5q150 0 221.5 80.5t118.5 288.5q45 203 45 307q0 108 -50 156.5t-171 48.5q-153 0 -223 -79.5t-117 -289.5 q-45 -203 -45 -313zM827 518h471q26 0 31 29q31 148 31 219q0 94 -53 135t-158 41q-137 0 -203.5 -64t-99.5 -245l-2 -12q-2 -13 -17 -103z" />
<glyph unicode="&#x178;" horiz-adv-x="890" d="M145 1309q0 16 19 16h55q12 0 17 -3t6 -13q32 -382 166 -740h16q138 182 246.5 356.5t214.5 387.5q6 12 22 12h60q20 0 14 -16q-113 -228 -236.5 -425t-300.5 -425l-86 -441q-3 -18 -22 -18h-55q-11 0 -15.5 4t-3.5 14l88 447q-164 420 -205 844zM328 1524q0 15 10 67 q15 74 88 74h31q61 0 61 -51q0 -21 -10 -66q-9 -39 -29.5 -55t-62.5 -16h-25q-63 0 -63 47zM657 1524q0 10 11 67q15 74 88 74h30q62 0 62 -51q0 -21 -10 -66q-9 -39 -30 -55t-63 -16h-24q-64 0 -64 47z" />
<glyph unicode="&#x2c6;" horiz-adv-x="774" d="M238 1245q-19 15 2 33l254 227q21 21 43 21h38q23 0 39 -21l191 -239q13 -19 -6 -33l-35 -27q-20 -12 -35 6l-172 207h-12l-238 -207q-20 -17 -35 -2z" />
<glyph unicode="&#x2dc;" horiz-adv-x="864" d="M229 1303q97 155 220 155q63 0 120 -49l43 -37q41 -35 76 -35q59 0 143 109q13 15 29 2l33 -27q16 -13 2 -30q-55 -76 -106 -115t-109 -39q-66 0 -123 49l-43 37q-26 22 -42 31.5t-36 9.5q-34 0 -65.5 -24.5t-69.5 -79.5q-14 -20 -31 -9l-37 27q-13 11 -4 25z" />
<glyph unicode="&#x2000;" horiz-adv-x="870" />
<glyph unicode="&#x2001;" horiz-adv-x="1741" />
<glyph unicode="&#x2002;" horiz-adv-x="870" />
<glyph unicode="&#x2003;" horiz-adv-x="1741" />
<glyph unicode="&#x2004;" horiz-adv-x="580" />
<glyph unicode="&#x2005;" horiz-adv-x="435" />
<glyph unicode="&#x2006;" horiz-adv-x="290" />
<glyph unicode="&#x2007;" horiz-adv-x="290" />
<glyph unicode="&#x2008;" horiz-adv-x="217" />
<glyph unicode="&#x2009;" horiz-adv-x="348" />
<glyph unicode="&#x200a;" horiz-adv-x="96" />
<glyph unicode="&#x2010;" horiz-adv-x="563" d="M35 512l12 53q3 15 16 15h392q15 0 12 -15l-12 -53q-3 -14 -17 -14h-391q-15 0 -12 14z" />
<glyph unicode="&#x2011;" horiz-adv-x="563" d="M35 512l12 53q3 15 16 15h392q15 0 12 -15l-12 -53q-3 -14 -17 -14h-391q-15 0 -12 14z" />
<glyph unicode="&#x2012;" horiz-adv-x="563" d="M35 512l12 53q3 15 16 15h392q15 0 12 -15l-12 -53q-3 -14 -17 -14h-391q-15 0 -12 14z" />
<glyph unicode="&#x2013;" horiz-adv-x="1024" d="M-27 512l13 53q3 15 16 15h979q15 0 12 -15l-12 -53q-3 -14 -16 -14h-979q-16 0 -13 14z" />
<glyph unicode="&#x2014;" horiz-adv-x="2048" d="M-27 512l13 53q3 15 16 15h2003q15 0 12 -15l-12 -53q-3 -14 -16 -14h-2003q-16 0 -13 14z" />
<glyph unicode="&#x2018;" horiz-adv-x="368" d="M160 1012q0 19 12 73q39 164 166 310q11 14 24 6l29 -21q14 -10 0 -24q-69 -81 -102 -156q-12 -27 8 -37l18 -8q31 -12 31 -39q0 -24 -14 -90q-15 -68 -78 -68h-27q-67 0 -67 54z" />
<glyph unicode="&#x2019;" horiz-adv-x="368" d="M141 973q-14 10 0 24q71 83 103 156q12 27 -8 37l-19 8q-31 12 -31 39q0 19 15 90q15 68 78 68h26q68 0 68 -54q0 -15 -13 -73q-40 -165 -165 -310q-11 -14 -25 -6z" />
<glyph unicode="&#x201a;" horiz-adv-x="368" d="M-70 -219q71 83 103 156q12 26 -8 36l-19 9q-31 12 -31 38q0 20 15 91q15 67 78 67h26q68 0 68 -53q0 -20 -12 -74q-39 -162 -166 -309q-11 -14 -25 -6l-29 20q-14 11 0 25z" />
<glyph unicode="&#x201c;" horiz-adv-x="645" d="M160 1012q0 19 12 73q39 164 166 310q11 14 24 6l29 -21q14 -10 0 -24q-69 -81 -102 -156q-12 -27 8 -37l18 -8q31 -12 31 -39q0 -24 -14 -90q-15 -68 -78 -68h-27q-67 0 -67 54zM436 1012q0 14 13 73q40 165 165 310q11 14 25 6l29 -21q14 -10 0 -24q-71 -83 -103 -156 q-12 -27 8 -37l19 -8q31 -12 31 -39q0 -19 -15 -90q-15 -68 -78 -68h-26q-68 0 -68 54z" />
<glyph unicode="&#x201d;" horiz-adv-x="645" d="M141 969q-14 10 0 24q71 83 103 156q12 27 -8 37l-19 8q-31 12 -31 39q0 19 15 90q15 68 78 68h26q68 0 68 -54q0 -15 -13 -73q-40 -165 -165 -310q-11 -14 -25 -6zM418 969q-14 10 0 24q69 81 102 156q12 27 -8 37l-18 8q-31 12 -31 39q0 23 14 90q15 68 78 68h27 q67 0 67 -54q0 -19 -12 -73q-39 -164 -166 -310q-11 -14 -25 -6z" />
<glyph unicode="&#x201e;" horiz-adv-x="645" d="M-70 -219q71 83 103 156q12 26 -8 36l-19 9q-31 12 -31 38q0 20 15 91q15 67 78 67h26q68 0 68 -53q0 -20 -12 -74q-39 -162 -166 -309q-11 -14 -25 -6l-29 20q-14 11 0 25zM207 -219q69 81 102 156q12 26 -8 36l-18 9q-31 12 -31 38q0 24 14 91q15 67 78 67h27 q67 0 67 -53q0 -20 -12 -74q-39 -162 -166 -309q-11 -14 -24 -6l-29 20q-14 11 0 25z" />
<glyph unicode="&#x2022;" horiz-adv-x="698" d="M94 492q0 103 81 184.5t192 81.5q83 0 131.5 -48t48.5 -130q0 -103 -81.5 -185t-191.5 -82q-83 0 -131.5 48.5t-48.5 130.5z" />
<glyph unicode="&#x2026;" horiz-adv-x="1167" d="M-12 23q0 13 12 81t82 68h22q62 0 62 -41q0 -13 -14 -82q-8 -35 -26 -51t-58 -16h-21q-59 0 -59 41zM377 23q0 13 12 81t82 68h23q61 0 61 -41q0 -13 -14 -82q-8 -35 -26 -51t-58 -16h-21q-59 0 -59 41zM766 23q0 13 12 81t82 68h23q61 0 61 -41q0 -13 -14 -82 q-8 -35 -26 -51t-58 -16h-21q-59 0 -59 41z" />
<glyph unicode="&#x202f;" horiz-adv-x="348" />
<glyph unicode="&#x2039;" horiz-adv-x="557" d="M57 457l4 24q6 27 23 39l319 230q15 12 27 -2l27 -33q10 -14 -4 -25l-281 -227l184 -215q10 -14 -4 -25l-28 -24q-14 -11 -25 0l-227 225q-18 18 -15 33z" />
<glyph unicode="&#x203a;" horiz-adv-x="557" d="M53 233q-10 14 4 25l281 227l-184 215q-10 14 4 25l28 25q14 11 25 0l227 -226q17 -17 15 -32l-4 -25q-5 -26 -23 -39l-320 -229q-15 -12 -26 2z" />
<glyph unicode="&#x205f;" horiz-adv-x="435" />
<glyph unicode="&#x20ac;" d="M14 487l9 48q3 18 22 18h150q4 29 14.5 94.5t11.5 69.5h-145q-20 0 -17 20l9 47q3 19 22 19h148q30 167 71.5 271t104.5 163q111 106 329 106q183 0 314 -79q20 -13 10 -33l-18 -29q-12 -21 -35 -8q-135 66 -269 66q-172 0 -258 -80q-53 -49 -87 -138.5t-62 -238.5h465 q19 0 16 -21l-8 -47q-3 -18 -23 -18h-466q-18 -97 -27 -164h463q19 0 16 -21l-8 -47q-3 -18 -23 -18h-460q-13 -111 -13 -135q0 -76 12 -124t44.5 -82t89 -48.5t145.5 -14.5q130 0 281 52q12 5 19 1.5t11 -18.5l9 -30q5 -18 -15 -27q-155 -59 -315 -59q-210 0 -295.5 74.5 t-85.5 258.5q0 67 10 152h-151q-18 0 -15 20z" />
<glyph unicode="&#x2122;" horiz-adv-x="1316" d="M174 1272l8 41q2 12 15 12h407q6 0 7.5 -2.5t0.5 -9.5l-8 -41q-4 -15 -14 -15h-166l-109 -532q-2 -8 -4.5 -11t-11.5 -3h-47q-9 0 -12 2.5t-2 11.5l108 532h-164q-12 0 -8 15zM580 727q-3 -16 12 -16h43q14 0 16 14q67 280 131 510h6q10 -141 41 -428q3 -27 25 -27h59 q14 0 21 5t16 22q103 194 217 428h7q-30 -223 -78 -510q-1 -9 1.5 -11.5t10.5 -2.5h45q20 0 23 16q39 245 81 576q3 22 -22 22h-76q-24 0 -35 -22q-99 -210 -219 -439h-8q-19 196 -35 439q-3 22 -22 22h-80q-13 0 -18.5 -4t-10.5 -18q-84 -295 -151 -576z" />
<glyph unicode="&#xe000;" horiz-adv-x="1003" d="M0 0v1004h1004v-1004h-1004z" />
</font>
</defs>
</svg>
